<svg version="1.1" xmlns="http://www.w3.org/2000/svg" xmlns:xlink="http://www.w3.org/1999/xlink" width="304.3357" height="62.85179" viewBox="0,0,304.3357,62.85179"><defs><linearGradient x1="260.24075" y1="112.1076" x2="397.20135" y2="249.0682" gradientUnits="userSpaceOnUse" id="color-1"><stop offset="0" stop-color="#ff5ce7"/><stop offset="1" stop-color="#df5dff"/></linearGradient><linearGradient x1="269.87422" y1="161.43697" x2="269.87422" y2="200.5445" gradientTransform="translate(-277.97178,-225.12029) scale(1.18002,1.18002)" gradientUnits="userSpaceOnUse" id="color-2"><stop offset="0" stop-color="#ffffff"/><stop offset="1" stop-color="#ffffff" stop-opacity="0.8"/></linearGradient></defs><g transform="translate(-167.83215,-149.16202)"><g stroke-miterlimit="10"><path d="M167.83925,180.11886c-0.38127,-25.39835 14.66658,-30.95684 28.14259,-30.95684c25.45959,0 200.28619,0 244.24916,0c15.36416,0 30.95685,4.01553 31.89493,29.08068c1.00171,26.76514 -16.13727,33.77111 -30.95685,33.77111c-42.84791,0 -216.22545,0 -242.37299,0c-14.58944,0 -30.57292,-6.31893 -30.95685,-31.89494z" fill="url(#color-1)" stroke="none" stroke-width="0" stroke-linecap="butt" stroke-linejoin="miter"/><text transform="translate(235.56441,190.77594) scale(0.84744,0.84744)" font-size="40" xml:space="preserve" fill="#ffffff" stroke="url(#color-2)" stroke-width="1" stroke-linecap="butt" stroke-linejoin="miter" font-family="&quot;Torus&quot;, Handwriting" font-weight="normal" text-anchor="start"><tspan x="0" dy="0">join room</tspan></text><path d="M178.73846,180.60666c0,-13.72941 11.12988,-24.85929 24.85929,-24.85929c13.72941,0 24.85929,11.12988 24.85929,24.85929c0,13.72941 -11.12988,24.85929 -24.85929,24.85929c-13.72941,0 -24.85929,-11.12988 -24.85929,-24.85929z" fill="#ffffff" stroke="none" stroke-width="0" stroke-linecap="butt" stroke-linejoin="miter"/><path d="M204.114,178.49341l-13.37454,13.36426l3.21457,3.21456M195.56132,187.03582l3.21457,3.21456M216.45604,173.37387c0,3.99456 -3.23819,7.23279 -7.23279,7.23279c-3.9946,0 -7.23279,-3.23823 -7.23279,-7.23279c0,-3.99456 3.23819,-7.23279 7.23279,-7.23279c3.9946,0 7.23279,3.23823 7.23279,7.23279z" fill="none" stroke="#ff5ce7" stroke-width="3.75" stroke-linecap="round" stroke-linejoin="round"/></g></g></svg>