<svg version="1.1" xmlns="http://www.w3.org/2000/svg" xmlns:xlink="http://www.w3.org/1999/xlink" width="371.3357" height="67.8411" viewBox="0,0,371.3357,67.8411"><defs><linearGradient x1="226.74074" y1="112.1076" x2="363.70134" y2="249.0682" gradientUnits="userSpaceOnUse" id="color-1"><stop offset="0" stop-color="#ff5ce7"/><stop offset="1" stop-color="#df5dff"/></linearGradient><linearGradient x1="238.37891" y1="149.158" x2="238.37891" y2="188.26628" gradientTransform="translate(-240.801,-210.62734) scale(1.18002,1.18002)" gradientUnits="userSpaceOnUse" id="color-2"><stop offset="0" stop-color="#ffffff"/><stop offset="1" stop-color="#ffffff" stop-opacity="0.8"/></linearGradient><linearGradient x1="218.71535" y1="188.27047" x2="218.71535" y2="204.96273" gradientTransform="translate(-564.16576,-555.13099) scale(2.76465,2.76472)" gradientUnits="userSpaceOnUse" id="color-3"><stop offset="0" stop-color="#ffffff"/><stop offset="1" stop-color="#ffffff" stop-opacity="0.8"/></linearGradient></defs><g transform="translate(-134.33214,-144.17271)"><g stroke-miterlimit="10"><path d="M134.33924,180.11886c-0.38127,-25.39835 14.66658,-30.95684 28.14259,-30.95684c25.45959,0 267.28619,0 311.24916,0c15.36416,0 30.95685,4.01553 31.89493,29.08068c1.00171,26.76514 -16.13727,33.77111 -30.95685,33.77111c-42.84791,0 -283.22545,0 -309.37299,0c-14.58944,0 -30.57292,-6.31893 -30.95685,-31.89494z" fill="url(#color-1)" stroke="none" stroke-width="0"/><text transform="translate(204.0644,178.49403) scale(0.84744,0.84744)" font-size="40" xml:space="preserve" fill="#ffffff" stroke="url(#color-2)" stroke-width="1" font-family="&quot;Torus&quot;, Handwriting" font-weight="normal" text-anchor="start"><tspan x="0" dy="0">solo</tspan></text><text transform="translate(204.0644,200.79088) scale(0.36171,0.3617)" font-size="40" xml:space="preserve" fill="#ffffff" stroke="url(#color-3)" stroke-width="0" font-family="&quot;Torus&quot;, Handwriting" font-weight="normal" text-anchor="start"><tspan x="0" dy="0">play by yourself</tspan></text><path d="M145.23845,180.60666c0,-13.72941 11.12988,-24.85929 24.85929,-24.85929c13.72941,0 24.85929,11.12988 24.85929,24.85929c0,13.72941 -11.12988,24.85929 -24.85929,24.85929c-13.72941,0 -24.85929,-11.12988 -24.85929,-24.85929z" fill="#ffffff" stroke="none" stroke-width="0"/><g fill="#ff5ce7" stroke="none" stroke-width="1"><path d="M178.09677,193.08084c-2.11608,0 -7.99873,0 -7.99873,0c0,0 -5.88323,0 -7.99926,0c-2.11598,0 -3.07523,-3.07722 -1.85173,-5.25202c0.92187,-1.63962 2.43266,-3.49686 4.89212,-4.55264c1.40671,0.98414 3.11557,1.56351 4.95883,1.56351c1.84223,0 3.5511,-0.57942 4.95776,-1.56351c2.45951,1.05577 3.97025,2.91296 4.89266,4.55264c1.22354,2.1748 0.2643,5.25202 -1.85164,5.25202z"/><path d="M163.55626,176.2407v-1.56697c0,-3.61235 2.92836,-6.54125 6.54173,-6.54125c3.61283,0 6.54071,2.9289 6.54071,6.5412v1.56697c0,3.61235 -2.92788,6.54125 -6.54071,6.54125c-3.61332,0 -6.54173,-2.9289 -6.54173,-6.5412z"/></g></g></g></svg>