<svg version="1.1" xmlns="http://www.w3.org/2000/svg" xmlns:xlink="http://www.w3.org/1999/xlink" width="371.3357" height="67.8411" viewBox="0,0,371.3357,67.8411"><defs><linearGradient x1="226.74074" y1="112.1076" x2="363.70134" y2="249.0682" gradientUnits="userSpaceOnUse" id="color-1"><stop offset="0" stop-color="#ff5ce7"/><stop offset="1" stop-color="#df5dff"/></linearGradient><linearGradient x1="238.37708" y1="149.15684" x2="238.37708" y2="188.26482" gradientTransform="translate(-240.801,-210.62734) scale(1.18002,1.18002)" gradientUnits="userSpaceOnUse" id="color-2"><stop offset="0" stop-color="#ffffff"/><stop offset="1" stop-color="#ffffff" stop-opacity="0.8"/></linearGradient><linearGradient x1="218.71603" y1="188.27018" x2="218.71603" y2="204.96241" gradientTransform="translate(-564.16577,-555.13099) scale(2.76465,2.76472)" gradientUnits="userSpaceOnUse" id="color-3"><stop offset="0" stop-color="#ffffff"/><stop offset="1" stop-color="#ffffff" stop-opacity="0.8"/></linearGradient></defs><g transform="translate(-134.33214,-144.17271)"><g stroke-miterlimit="10"><path d="M134.33924,180.11886c-0.38127,-25.39835 14.66658,-30.95684 28.14259,-30.95684c25.45959,0 267.28619,0 311.24916,0c15.36416,0 30.95685,4.01553 31.89493,29.08068c1.00171,26.76514 -16.13727,33.77111 -30.95685,33.77111c-42.84791,0 -283.22545,0 -309.37299,0c-14.58944,0 -30.57292,-6.31893 -30.95685,-31.89494z" fill="url(#color-1)" stroke="none" stroke-width="0"/><text transform="translate(204.0644,178.49403) scale(0.84744,0.84744)" font-size="40" xml:space="preserve" fill="#ffffff" stroke="url(#color-2)" stroke-width="1" font-family="&quot;Torus&quot;, Handwriting" font-weight="normal" text-anchor="start"><tspan x="0" dy="0">multiplayer</tspan></text><text transform="translate(204.0644,200.79088) scale(0.36171,0.3617)" font-size="40" xml:space="preserve" fill="#ffffff" stroke="url(#color-3)" stroke-width="0" font-family="&quot;Torus&quot;, Handwriting" font-weight="normal" text-anchor="start"><tspan x="0" dy="0">play with your friends and/or the world</tspan></text><path d="M145.23845,180.60666c0,-13.72941 11.12988,-24.85929 24.85929,-24.85929c13.72941,0 24.85929,11.12988 24.85929,24.85929c0,13.72941 -11.12988,24.85929 -24.85929,24.85929c-13.72941,0 -24.85929,-11.12988 -24.85929,-24.85929z" fill="#ffffff" stroke="none" stroke-width="0"/><path d="M186.09774,189.60666c0,3.3 -2.7,6 -6,6c-1.2,0 -2.3,-0.3 -3.3,-1h-4.4c-1,0.7 -2.1,1 -3.3,1c-2,0 -3.8,-1 -4.9,-2.6c-6,-1.7 -10.1,-7.2 -10.1,-13.4c0,-7.7 6.3,-14 14,-14c7.7,0 14,6.3 14,14c0,1.5 -0.2,2.9 -0.6,4.2c2.6,0.6 4.6,3 4.6,5.8zM172.19774,168.40666c1.6,2.3 2.7,6 2.8,10.2h5c-0.3,-4.7 -3.4,-8.6 -7.8,-10.2zM156.09774,178.60666h5c0.2,-4.2 1.2,-7.9 2.8,-10.2c-4.3,1.6 -7.4,5.5 -7.8,10.2zM163.19774,190.60666c-0.1,-0.4 -0.1,-0.7 -0.1,-1v-0.1c-1.2,-2.3 -1.9,-5.5 -2,-8.9h-5c0.4,4.4 3.1,8.2 7.1,10zM172.09774,189.60666c0,-0.6 -0.4,-1 -1,-1h-1v-1c0,-0.6 -0.4,-1 -1,-1c-0.6,0 -1,0.4 -1,1v1h-1c-0.6,0 -1,0.4 -1,1c0,0.6 0.4,1 1,1h1v1c0,0.6 0.4,1 1,1c0.6,0 1,-0.4 1,-1v-1h1c0.6,0 1,-0.4 1,-1zM173.09774,180.60666h-10c0.1,2.1 0.4,4.1 0.9,5.8c1.1,-1.7 3,-2.8 5.1,-2.8c1.2,0 2.3,0.3 3.3,1h0.2c0.3,-1.3 0.4,-2.6 0.5,-4zM173.09774,178.60666c-0.3,-6.5 -2.7,-11 -5,-11c-2.3,0 -4.8,4.5 -5,11zM176.79774,184.60666c0.8,-0.5 1.7,-0.8 2.6,-0.9c0.4,-1 0.6,-2.1 0.7,-3.1h-5c0,1.4 -0.2,2.7 -0.4,4zM180.09774,190.60666c0,-0.1 -0.1,-0.3 -0.1,-0.4c0,-0.1 -0.1,-0.2 -0.2,-0.3c-0.3,-0.3 -0.7,-0.4 -1.1,-0.2c-0.1,0 -0.2,0.1 -0.3,0.2c-0.1,0.1 -0.1,0.2 -0.2,0.3c-0.1,0.1 -0.1,0.3 -0.1,0.4c0,0.1 0.1,0.3 0.1,0.4c0,0.1 0.1,0.2 0.2,0.3c0.1,0.1 0.2,0.2 0.3,0.2c0.1,0.1 0.3,0.1 0.4,0.1c0.1,0 0.3,-0.1 0.4,-0.1c0.1,0 0.2,-0.1 0.3,-0.2c0.1,-0.1 0.1,-0.2 0.2,-0.3c0.1,-0.1 0.1,-0.3 0.1,-0.4zM182.09774,188.60666c0,-0.2 -0.1,-0.5 -0.3,-0.7l-0.1,-0.1c-0.1,-0.1 -0.1,-0.1 -0.2,-0.1c-0.1,-0.1 -0.1,-0.1 -0.2,-0.1c-0.2,0 -0.4,0 -0.6,0.1c-0.1,0 -0.2,0.1 -0.3,0.2c-0.2,0.2 -0.3,0.4 -0.3,0.7c0,0.1 0.1,0.3 0.1,0.4c0,0.1 0.1,0.2 0.2,0.3c0.1,0.1 0.2,0.2 0.3,0.2c0.1,0.1 0.3,0.1 0.4,0.1c0.3,0 0.5,-0.1 0.7,-0.3c0.2,-0.2 0.3,-0.4 0.3,-0.7z" fill="#ff5ce7" stroke="none" stroke-width="1"/></g></g></svg>