<svg version="1.1" xmlns="http://www.w3.org/2000/svg" xmlns:xlink="http://www.w3.org/1999/xlink" width="371.3357" height="67.8411" viewBox="0,0,371.3357,67.8411"><defs><linearGradient x1="226.74074" y1="112.1076" x2="363.70134" y2="249.0682" gradientUnits="userSpaceOnUse" id="color-1"><stop offset="0" stop-color="#ff5ce7"/><stop offset="1" stop-color="#df5dff"/></linearGradient><linearGradient x1="238.37433" y1="149.15511" x2="238.37433" y2="188.26263" gradientTransform="translate(-240.801,-210.62734) scale(1.18002,1.18002)" gradientUnits="userSpaceOnUse" id="color-2"><stop offset="0" stop-color="#ffffff"/><stop offset="1" stop-color="#ffffff" stop-opacity="0.8"/></linearGradient><linearGradient x1="218.71705" y1="188.26974" x2="218.71705" y2="204.96193" gradientTransform="translate(-564.16577,-555.13099) scale(2.76465,2.76472)" gradientUnits="userSpaceOnUse" id="color-3"><stop offset="0" stop-color="#ffffff"/><stop offset="1" stop-color="#ffffff" stop-opacity="0.8"/></linearGradient></defs><g transform="translate(-134.33214,-144.17271)"><g stroke-miterlimit="10"><path d="M134.33924,180.11886c-0.38127,-25.39835 14.66658,-30.95684 28.14259,-30.95684c25.45959,0 267.28619,0 311.24916,0c15.36416,0 30.95685,4.01553 31.89493,29.08068c1.00171,26.76514 -16.13727,33.77111 -30.95685,33.77111c-42.84791,0 -283.22545,0 -309.37299,0c-14.58944,0 -30.57292,-6.31893 -30.95685,-31.89494z" fill="url(#color-1)" stroke="none" stroke-width="0"/><text transform="translate(204.0644,178.49403) scale(0.84744,0.84744)" font-size="40" xml:space="preserve" fill="#ffffff" stroke="url(#color-2)" stroke-width="1" font-family="&quot;Torus&quot;, Handwriting" font-weight="normal" text-anchor="start"><tspan x="0" dy="0">weekly challenge</tspan></text><text transform="translate(204.0644,200.79088) scale(0.36171,0.3617)" font-size="40" xml:space="preserve" fill="#ffffff" stroke="url(#color-3)" stroke-width="0" font-family="&quot;Torus&quot;, Handwriting" font-weight="normal" text-anchor="start"><tspan x="0" dy="0">a brand-new challenge every week!</tspan></text><path d="M145.23845,180.60666c0,-13.72941 11.12988,-24.85929 24.85929,-24.85929c13.72941,0 24.85929,11.12988 24.85929,24.85929c0,13.72941 -11.12988,24.85929 -24.85929,24.85929c-13.72941,0 -24.85929,-11.12988 -24.85929,-24.85929z" fill="#ffffff" stroke="none" stroke-width="0"/><path d="M159.30591,171.19023v-2.96247c0,-0.70253 0.5671,-1.26963 1.26963,-1.26963c0.70253,0 1.26963,0.5671 1.26963,1.26963v2.96247c0,0.70253 -0.5671,1.26963 -1.26963,1.26963c-0.70253,0 -1.26963,-0.5671 -1.26963,-1.26963zM172.84859,172.45987c0.70253,0 1.26963,-0.5671 1.26963,-1.26963v-2.96247c0,-0.70253 -0.5671,-1.26963 -1.26963,-1.26963c-0.70246,0 -1.26957,0.5671 -1.26957,1.26963v2.96247c0,0.70253 0.5671,1.26963 1.26957,1.26963zM180.46645,186.42586h-1.26963v-2.96259c0,-0.46715 -0.37921,-0.84642 -0.84643,-0.84642c-0.46721,0 -0.84643,0.37928 -0.84643,0.84642v3.80895c0,0.46728 0.37921,0.84642 0.84643,0.84642h2.11605c0.46721,0 0.84643,-0.37914 0.84643,-0.84642c0,-0.46728 -0.37921,-0.84635 -0.84643,-0.84635zM185.54493,187.06062c0,3.97394 -3.22063,7.19458 -7.19458,7.19458c-2.83128,0 -5.27744,-1.642 -6.44974,-4.0205h-15.13396c-1.16807,0 -2.11605,-0.94799 -2.11605,-2.11605v-15.65878c0,-1.16806 0.94799,-2.11606 2.11605,-2.11606h1.69284v0.84642c0,1.16806 0.948,2.11605 2.11606,2.11605c1.16807,0 2.11605,-0.94799 2.11605,-2.11605v-0.84642h8.04101v0.84642c0,1.16806 0.94799,2.11605 2.11605,2.11605c1.16812,0 2.11606,-0.94799 2.11606,-2.11605v-0.84642h1.69284c1.16812,0 2.11606,0.948 2.11606,2.11606v7.42733c3.77504,0.22007 6.77131,3.34342 6.77131,7.17342zM170.34325,176.3534h-6.87718v1.90021h4.77383c-0.95646,1.15959 -1.73093,2.43769 -2.32343,3.82588c-0.58827,1.3923 -0.93954,2.83968 -1.05803,4.34637h2.18801c0.00847,-0.6729 0.08887,-1.39666 0.237,-2.17113c0.14812,-0.77871 0.35972,-1.54471 0.63481,-2.30227c0.27508,-0.75755 0.61366,-1.47276 1.01994,-2.14567c0.41052,-0.6729 0.87605,-1.23578 1.40506,-1.69708zM183.85215,187.06062c0,-3.03442 -2.46738,-5.50173 -5.50174,-5.50173c-3.03437,0 -5.50174,2.46738 -5.50174,5.50173c0,3.03436 2.46738,5.50173 5.50175,5.50173c3.03437,0 5.50175,-2.46731 5.50175,-5.50173z" fill="#ff5ce7" stroke="none" stroke-width="1"/><path d="M161.76706,187.77454v-14.33576h11.07764v14.33576z" fill="#ff5ce7" stroke="none" stroke-width="0"/><text transform="translate(162.14697,184.24824) scale(0.30346,0.30346)" font-size="40" xml:space="preserve" fill="#ffffff" stroke="#ffffff" stroke-width="5" font-family="&quot;Venera 500&quot;, Sans Serif" font-weight="normal" text-anchor="start"><tspan x="0" dy="0">7</tspan></text></g></g></svg>