<svg version="1.1" xmlns="http://www.w3.org/2000/svg" xmlns:xlink="http://www.w3.org/1999/xlink" width="371.3357" height="67.8411" viewBox="0,0,371.3357,67.8411"><defs><linearGradient x1="226.74075" y1="112.1076" x2="363.70135" y2="249.0682" gradientUnits="userSpaceOnUse" id="color-1"><stop offset="0" stop-color="#ffb65c"/><stop offset="1" stop-color="#ff965c"/></linearGradient><linearGradient x1="238.36942" y1="149.15218" x2="238.36942" y2="188.25896" gradientTransform="translate(-240.80101,-210.62734) scale(1.18002,1.18002)" gradientUnits="userSpaceOnUse" id="color-2"><stop offset="0" stop-color="#ffffff"/><stop offset="1" stop-color="#ffffff" stop-opacity="0.8"/></linearGradient><linearGradient x1="218.71889" y1="189.16265" x2="218.71889" y2="205.85476" gradientTransform="translate(-564.16579,-557.60163) scale(2.76465,2.76472)" gradientUnits="userSpaceOnUse" id="color-3"><stop offset="0" stop-color="#ffffff"/><stop offset="1" stop-color="#ffffff" stop-opacity="0.8"/></linearGradient></defs><g transform="translate(-134.33215,-144.17271)"><g stroke-miterlimit="10"><path d="M134.33925,180.11886c-0.38127,-25.39835 14.66658,-30.95684 28.14259,-30.95684c25.45959,0 267.28619,0 311.24916,0c15.36416,0 30.95685,4.01553 31.89493,29.08068c1.00171,26.76514 -16.13727,33.77111 -30.95685,33.77111c-42.84791,0 -283.22545,0 -309.37299,0c-14.58944,0 -30.57292,-6.31893 -30.95685,-31.89494z" fill="url(#color-1)" stroke="none" stroke-width="0"/><text transform="translate(204.06441,178.49403) scale(0.84744,0.84744)" font-size="40" xml:space="preserve" fill="#ffffff" stroke="url(#color-2)" stroke-width="1" font-family="&quot;Torus&quot;, Handwriting" font-weight="normal" text-anchor="start"><tspan x="0" dy="0">browse beatmaps</tspan></text><text transform="translate(204.06441,201.68451) scale(0.36171,0.3617)" font-size="40" xml:space="preserve" fill="#ffffff" stroke="url(#color-3)" stroke-width="0" font-family="&quot;Torus&quot;, Handwriting" font-weight="normal" text-anchor="start"><tspan x="0" dy="0">find new beatmaps to download and play</tspan></text><path d="M145.23847,180.60666c0,-13.72941 11.12988,-24.85929 24.85929,-24.85929c13.72941,0 24.85929,11.12988 24.85929,24.85929c0,13.72941 -11.12988,24.85929 -24.85929,24.85929c-13.72941,0 -24.85929,-11.12988 -24.85929,-24.85929z" fill="#ffffff" stroke="none" stroke-width="0"/><path d="M182.2298,168.47463v24.26406c0,0.83754 -0.67896,1.5165 -1.51651,1.5165h-18.19805c-2.51263,0 -4.54951,-2.03688 -4.54951,-4.54951v-18.19805c0,-2.51263 2.03689,-4.54951 4.54951,-4.54951h18.19805c0.83754,0 1.51651,0.67896 1.51651,1.5165zM179.19679,191.22219v-3.03301h-16.68154c-0.83754,0 -1.5165,0.67896 -1.5165,1.51651c0,0.83754 0.67896,1.5165 1.5165,1.5165z" fill="#ffb65c" stroke="none" stroke-width="1"/></g></g></svg>