<svg version="1.1" xmlns="http://www.w3.org/2000/svg" xmlns:xlink="http://www.w3.org/1999/xlink" width="371.3357" height="67.8411" viewBox="0,0,371.3357,67.8411"><defs><linearGradient x1="226.74075" y1="112.1076" x2="363.70135" y2="249.0682" gradientUnits="userSpaceOnUse" id="color-1"><stop offset="0" stop-color="#ffb65c"/><stop offset="1" stop-color="#ff965c"/></linearGradient><linearGradient x1="238.37493" y1="149.15566" x2="238.37493" y2="188.26334" gradientTransform="translate(-240.80101,-210.62734) scale(1.18002,1.18002)" gradientUnits="userSpaceOnUse" id="color-2"><stop offset="0" stop-color="#ffffff"/><stop offset="1" stop-color="#ffffff" stop-opacity="0.8"/></linearGradient><linearGradient x1="218.71686" y1="188.26992" x2="218.71686" y2="204.96209" gradientTransform="translate(-564.1658,-555.13099) scale(2.76465,2.76472)" gradientUnits="userSpaceOnUse" id="color-3"><stop offset="0" stop-color="#ffffff"/><stop offset="1" stop-color="#ffffff" stop-opacity="0.8"/></linearGradient></defs><g transform="translate(-134.33215,-144.17271)"><g stroke-miterlimit="10"><path d="M134.33925,180.11886c-0.38127,-25.39835 14.66658,-30.95684 28.14259,-30.95684c25.45959,0 267.28619,0 311.24916,0c15.36416,0 30.95685,4.01553 31.89493,29.08068c1.00171,26.76514 -16.13727,33.77111 -30.95685,33.77111c-42.84791,0 -283.22545,0 -309.37299,0c-14.58944,0 -30.57292,-6.31893 -30.95685,-31.89494z" fill="url(#color-1)" fill-rule="nonzero" stroke="none" stroke-width="0"/><text transform="translate(204.06441,178.49403) scale(0.84744,0.84744)" font-size="40" xml:space="preserve" fill="#ffffff" fill-rule="nonzero" stroke="url(#color-2)" stroke-width="1" font-family="&quot;Torus&quot;, Handwriting" font-weight="normal" text-anchor="start"><tspan x="0" dy="0">osu!3ditor</tspan></text><text transform="translate(204.06441,200.79088) scale(0.36171,0.3617)" font-size="40" xml:space="preserve" fill="#ffffff" fill-rule="nonzero" stroke="url(#color-3)" stroke-width="0" font-family="&quot;Torus&quot;, Handwriting" font-weight="normal" text-anchor="start"><tspan x="0" dy="0">create new beatmaps or edit existing ones</tspan></text><path d="M145.23847,180.60666c0,-13.72941 11.12988,-24.85929 24.85929,-24.85929c13.72941,0 24.85929,11.12988 24.85929,24.85929c0,13.72941 -11.12988,24.85929 -24.85929,24.85929c-13.72941,0 -24.85929,-11.12988 -24.85929,-24.85929z" fill="#ffffff" fill-rule="nonzero" stroke="none" stroke-width="0"/><path d="M160.09547,185.82684l13.72233,-13.72233c0,0 1.4362,0.47873 2.86969,1.91223c1.43349,1.43485 1.91223,2.86969 1.91223,2.86969l-13.72233,13.72233c-0.40963,0.4092 -0.9021,0.72599 -1.44431,0.92907l-4.73729,1.77699c-0.3723,0.13975 -0.79192,0.04904 -1.07325,-0.23201c-0.28134,-0.28104 -0.37248,-0.70057 -0.23312,-1.07301l1.77699,-4.73865c0.20308,-0.54222 0.51986,-1.03469 0.92907,-1.44431zM175.73138,170.19228c0,0 1.43485,0.47738 2.86834,1.91358c1.43485,1.43349 1.91223,2.86699 1.91223,2.86699l1.87166,-1.8703c0.33538,-0.33538 0.54906,-0.78301 0.47062,-1.25093c-0.10819,-0.6586 -0.43546,-1.66475 -1.38616,-2.61545c-0.94935,-0.9507 -1.95686,-1.27797 -2.61545,-1.38616c-0.46791,-0.07844 -0.91554,0.13524 -1.25093,0.47062l-1.8703,1.8703z" fill="#ffb65c" fill-rule="evenodd" stroke="none" stroke-width="1"/></g></g></svg>