<svg version="1.1" xmlns="http://www.w3.org/2000/svg" xmlns:xlink="http://www.w3.org/1999/xlink" width="33.52598" height="34.20328" viewBox="0,0,33.52598,34.20328"><g transform="translate(-223.23701,-162.89836)"><g data-paper-data="{&quot;isPaintingLayer&quot;:true}" fill-rule="nonzero" stroke-linecap="butt" stroke-linejoin="miter" stroke-miterlimit="10" stroke-dasharray="" stroke-dashoffset="0" style="mix-blend-mode: normal"><path d="M231.23701,197.10164c-4.41828,0 -8,-3.58172 -8,-8v-18.20328c0,-4.41828 3.58172,-8 8,-8h17.52598c4.41828,0 8,3.58172 8,8v18.20328c0,4.41828 -3.58172,8 -8,8z" fill="#443b46" stroke="none" stroke-width="0"/><path d="M240.97701,185.75715c0.05042,0.10083 0.07562,0.20786 0.07562,0.32108v0c0,0.18927 -0.07252,0.34685 -0.21757,0.47275c-0.14477,0.12618 -0.31798,0.18927 -0.51964,0.18927v0c-0.31517,0 -0.53584,-0.15125 -0.66202,-0.45374v0l-1.3422,-3.06337h-7.12843l-1.36122,3.06337c-0.12618,0.30249 -0.34685,0.45374 -0.66202,0.45374v0c-0.20166,0 -0.37812,-0.06619 -0.52936,-0.19856c-0.15125,-0.13238 -0.22687,-0.29306 -0.22687,-0.48204v0c0,-0.10083 0.02521,-0.20166 0.07562,-0.30249v0l5.40768,-12.02576c0.07548,-0.17631 0.18899,-0.30869 0.34052,-0.39713c0.15125,-0.08816 0.31503,-0.13223 0.49134,-0.13223v0c0.18899,0 0.35925,0.04732 0.51077,0.14195c0.15125,0.09435 0.26461,0.22349 0.34009,0.38741v0zM234.73747,175.14964l-2.98732,6.78791h5.99366z" fill="#ffffff" stroke="#ffffff" stroke-width="0.5"/><path d="M242.67501,186.79796c-0.23961,0 -0.42868,-0.0725 -0.56721,-0.21751c-0.13853,-0.14501 -0.2078,-0.33718 -0.2078,-0.57651v0v-11.87053c0,-0.22694 0.07236,-0.40968 0.21709,-0.54821c0.14501,-0.13853 0.33718,-0.2078 0.57651,-0.2078v0h4.47985c1.39882,0 2.4858,0.34013 3.26095,1.02039c0.77487,0.68055 1.1623,1.64463 1.1623,2.89224v0c0,1.24762 -0.39067,2.21789 -1.17202,2.91083c-0.78135,0.69322 -1.86509,1.03982 -3.25124,1.03982v0h-3.72343v4.76325c0,0.23933 -0.06941,0.4315 -0.20822,0.57651c-0.13853,0.14501 -0.32746,0.21751 -0.56679,0.21751zM247.02224,179.95506c2.02896,0 3.04344,-0.88834 3.04344,-2.66502v0c0,-1.75162 -1.01448,-2.62743 -3.04344,-2.62743v0h-3.57223v5.29245z" fill="#ffffff" stroke="#ffffff" stroke-width="0.5"/></g></g></svg>