<svg version="1.1" xmlns="http://www.w3.org/2000/svg" xmlns:xlink="http://www.w3.org/1999/xlink" width="33.52598" height="34.20328" viewBox="0,0,33.52598,34.20328"><g transform="translate(-223.23701,-162.89836)"><g data-paper-data="{&quot;isPaintingLayer&quot;:true}" stroke="none" stroke-linecap="butt" stroke-linejoin="miter" stroke-miterlimit="10" stroke-dasharray="" stroke-dashoffset="0" style="mix-blend-mode: normal"><path d="M231.23701,197.10164c-4.41828,0 -8,-3.58172 -8,-8v-18.20328c0,-4.41828 3.58172,-8 8,-8h17.52598c4.41828,0 8,3.58172 8,8v18.20328c0,4.41828 -3.58172,8 -8,8z" data-paper-data="{&quot;index&quot;:null}" fill="#443b46" fill-rule="nonzero" stroke-width="0"/><path d="M235.91842,168.9262c2.42944,-0.89544 5.08593,-0.96712 7.56008,-0.20398c1.54017,0.47506 2.95654,1.2572 4.16899,2.28862l0.39649,0.35296l1.23966,-1.2397c0.889,-0.88895 2.38148,-0.32538 2.50958,0.87553l0.00883,0.16764v5.88224h-5.88229c-1.25716,0 -1.91395,-1.45388 -1.15544,-2.39365l0.11228,-0.12478l1.0793,-1.07921c-0.95626,-0.86971 -2.09722,-1.52475 -3.34699,-1.91022c-1.85565,-0.57236 -3.84801,-0.5186 -5.6701,0.15298c-1.82207,0.6716 -3.37275,1.92373 -4.41304,3.56348c-1.04031,1.63975 -1.5125,3.57609 -1.34385,5.51065c0.16867,1.93456 0.96883,3.75995 2.27719,5.19494c1.30838,1.43498 3.05232,2.39995 4.96313,2.74604c1.91081,0.3461 3.88242,0.05429 5.61096,-0.83057c1.7287,-0.88471 3.11825,-2.3135 3.95487,-4.06595c0.35096,-0.73527 1.23154,-1.04684 1.96696,-0.69588c0.73527,0.35096 1.04669,1.23169 0.69573,1.96696c-1.11544,2.33651 -2.96822,4.24151 -5.27301,5.42142c-2.30494,1.17976 -4.93368,1.56879 -7.48144,1.10733c-2.54774,-0.46161 -4.87301,-1.74803 -6.6175,-3.66144c-1.74449,-1.91326 -2.81137,-4.34714 -3.03625,-6.92658c-0.22488,-2.57943 0.40472,-5.16123 1.79179,-7.34756c1.38708,-2.18633 3.45464,-3.85585 5.88407,-4.75129zM237.04949,176.25398c0,-0.54001 0.55321,-0.88281 1.02545,-0.67965l0.10725,0.05673l5.90633,3.74601c0.41522,0.26335 0.45296,0.83808 0.11324,1.15805l-0.11324,0.08778l-5.90633,3.74606c-0.45603,0.28918 -1.04182,0.00557 -1.12317,-0.50204l-0.00953,-0.12096z" fill="#ffffff" fill-rule="evenodd" stroke-width="1"/></g></g></svg>