<svg version="1.1" xmlns="http://www.w3.org/2000/svg" xmlns:xlink="http://www.w3.org/1999/xlink" width="33.52598" height="34.20328" viewBox="0,0,33.52598,34.20328"><g transform="translate(-223.23701,-162.89836)"><g data-paper-data="{&quot;isPaintingLayer&quot;:true}" fill-rule="nonzero" stroke="none" stroke-linecap="butt" stroke-linejoin="miter" stroke-miterlimit="10" stroke-dasharray="" stroke-dashoffset="0" style="mix-blend-mode: normal"><path d="M231.23701,197.10164c-4.41828,0 -8,-3.58172 -8,-8v-18.20328c0,-4.41828 3.58172,-8 8,-8h17.52598c4.41828,0 8,3.58172 8,8v18.20328c0,4.41828 -3.58172,8 -8,8z" data-paper-data="{&quot;index&quot;:null}" fill="#443b46" stroke-width="0"/><g fill="#ffffff" stroke-width="1"><path d="M229.23582,183.595l0.68953,0.1667l1.33365,-5.51646l0.98065,0.23708l-1.33365,5.51646l0.68956,0.16671l-1.32808,5.49344c-0.00191,0.0079 -0.00205,0.01566 -0.00314,0.0236l-2.36446,-0.57163c0.00266,-0.00758 0.00607,-0.0145 0.00799,-0.02243z"/><path d="M234.50715,184.86939l-1.33365,5.51646l-2.3623,-0.57111c0.0026,-0.00759 0.00614,-0.01448 0.00806,-0.02242l1.32808,-5.49344l0.6896,0.16672l1.33365,-5.51646l0.98058,0.23706l-1.33365,5.51646z"/><path d="M236.19225,191.11566l-2.46715,-0.59645l1.33365,-5.51646l0.68956,0.16671l1.33365,-5.51646l1.77759,0.42975z"/><path d="M227.82664,177.41545l1.5016,0.36302l-1.33365,5.51646l0.68953,0.1667l-1.32808,5.49344c-0.00191,0.0079 -0.00205,0.01566 -0.00314,0.0236l-2.19356,-0.53031z"/></g><g data-paper-data="{&quot;index&quot;:null}" fill="#ffffff" stroke-width="1"><path d="M250.88919,183.595l1.32794,5.49347c0.00192,0.00793 0.00533,0.01485 0.00799,0.02243l-2.36447,0.57163c-0.00109,-0.00795 -0.00123,-0.0157 -0.00314,-0.02361l-1.32809,-5.49344l0.68957,-0.16671l-1.33365,-5.51645l0.98065,-0.23708l1.33365,5.51645l0.68953,-0.1667z"/><path d="M246.30748,184.70268l-1.33365,-5.51646l0.98058,-0.23706l1.33365,5.51645l0.6896,-0.16672l1.32809,5.49344c0.00192,0.00793 0.00546,0.01482 0.00806,0.02241l-2.3623,0.57111l-1.33365,-5.51646z"/><path d="M241.26545,180.08275l1.77759,-0.42975l1.33365,5.51645l0.68956,-0.16671l1.33365,5.51647l-2.46715,0.59645z"/><path d="M254.96566,188.44836l-2.19355,0.53031c-0.00109,-0.00795 -0.00123,-0.0157 -0.00314,-0.02361l-1.32808,-5.49344l0.68953,-0.1667l-1.33365,-5.51646l1.5016,-0.36302z"/></g><g fill="#ffffff" stroke-width="0"><path d="M230.71523,174.46764c-0.60084,0 -1.12055,-0.13068 -1.5591,-0.39204c-0.43855,-0.26136 -0.7765,-0.63681 -1.01382,-1.12638c-0.23733,-0.4897 -0.356,-1.06799 -0.356,-1.73488v0c0,-0.66085 0.11867,-1.23605 0.356,-1.72562c0.23733,-0.4897 0.57528,-0.86522 1.01382,-1.12658c0.43855,-0.26122 0.95826,-0.39184 1.5591,-0.39184v0c0.40245,0 0.7824,0.06457 1.13987,0.1937c0.35747,0.12913 0.66837,0.31384 0.93268,0.55413v0c0.09611,0.09021 0.14417,0.19539 0.14417,0.31553v0c0,0.08403 -0.02404,0.15759 -0.07209,0.22068c-0.04806,0.06309 -0.10511,0.09464 -0.17115,0.09464v0c-0.07208,0 -0.1592,-0.03303 -0.26135,-0.09907v0c-0.30633,-0.24029 -0.5842,-0.40855 -0.83362,-0.5048c-0.24928,-0.09611 -0.53614,-0.14417 -0.86059,-0.14417v0c-0.69696,0 -1.23316,0.22679 -1.60862,0.68038c-0.37546,0.45359 -0.5632,1.09792 -0.5632,1.93301v0c0,0.84113 0.18774,1.48849 0.5632,1.94208c0.37546,0.45359 0.91167,0.68038 1.60862,0.68038v0c0.31841,0 0.6038,-0.04806 0.85617,-0.14417c0.25236,-0.09611 0.53171,-0.26431 0.83804,-0.5046v0c0.10215,-0.06617 0.18927,-0.09927 0.26135,-0.09927v0c0.06605,0 0.1231,0.03007 0.17115,0.09021c0.04806,0.06014 0.07209,0.13524 0.07209,0.22531v0c0,0.12014 -0.04806,0.22526 -0.14417,0.31533v0c-0.26431,0.24042 -0.57521,0.4252 -0.93268,0.55433c-0.35747,0.12913 -0.73743,0.19371 -1.13987,0.19371z"/><path d="M248.0049,174.7797c-0.11303,0 -0.20223,-0.0342 -0.26758,-0.10261c-0.06535,-0.06841 -0.09803,-0.15906 -0.09803,-0.27196v0v-5.5999c0,-0.10706 0.03414,-0.19327 0.10241,-0.25862c0.06841,-0.06535 0.15906,-0.09803 0.27197,-0.09803v0h2.11336c0.65989,0 1.17267,0.16046 1.53835,0.48137c0.36554,0.32105 0.54832,0.77585 0.54832,1.36441v0c0,0.58856 -0.1843,1.04628 -0.5529,1.37318c-0.3686,0.32702 -0.87985,0.49053 -1.53376,0.49053v0h-1.75652v2.24706c0,0.11291 -0.03275,0.20355 -0.09823,0.27196c-0.06535,0.06841 -0.15447,0.10261 -0.26738,0.10261zM250.0557,171.55158c0.95716,0 1.43574,-0.41908 1.43574,-1.25722v0c0,-0.82632 -0.47858,-1.23949 -1.43574,-1.23949v0h-1.68519v2.49671z"/><path d="M236.21667,174.57215c-0.58404,0 -1.09198,-0.13106 -1.52385,-0.39319c-0.432,-0.26213 -0.76415,-0.63456 -0.99647,-1.11728c-0.23244,-0.48259 -0.34866,-1.05158 -0.34866,-1.70697v0c0,-0.66138 0.11469,-1.23483 0.34407,-1.72035c0.22938,-0.48565 0.56007,-0.85808 0.99207,-1.11728c0.432,-0.25907 0.94295,-0.38861 1.53284,-0.38861v0c0.58976,0 1.10064,0.12954 1.53264,0.38861c0.432,0.2592 0.7627,0.63163 0.99207,1.11728c0.22938,0.48552 0.34407,1.05597 0.34407,1.71137v0c0,0.65539 -0.11623,1.22591 -0.34867,1.71156c-0.23231,0.48565 -0.56447,0.85954 -0.99647,1.12168c-0.43187,0.26213 -0.93975,0.39319 -1.52365,0.39319zM236.21667,173.94652c0.66724,0 1.18704,-0.22493 1.5594,-0.67477c0.37236,-0.44984 0.55854,-1.09185 0.55854,-1.92603v0c0,-0.83405 -0.18465,-1.47453 -0.55395,-1.92144c-0.36943,-0.44691 -0.89076,-0.67037 -1.56399,-0.67037v0c-0.66737,0 -1.18724,0.22492 -1.5596,0.67476c-0.37236,0.44984 -0.55854,1.08885 -0.55854,1.91705v0c0,0.82819 0.18618,1.46874 0.55854,1.92164c0.37236,0.45277 0.89223,0.67916 1.5596,0.67916z"/><path d="M244.29535,174.63112c-0.58404,0 -1.09199,-0.13107 -1.52386,-0.3932c-0.432,-0.26213 -0.76415,-0.63456 -0.99647,-1.11728c-0.23244,-0.48259 -0.34866,-1.05158 -0.34866,-1.70697v0c0,-0.66138 0.11469,-1.23483 0.34407,-1.72035c0.22938,-0.48566 0.56008,-0.85808 0.99207,-1.11728c0.432,-0.25907 0.94295,-0.3886 1.53284,-0.3886v0c0.58976,0 1.10064,0.12953 1.53264,0.3886c0.432,0.2592 0.7627,0.63162 0.99207,1.11728c0.22938,0.48552 0.34407,1.05597 0.34407,1.71137v0c0,0.65539 -0.11622,1.22591 -0.34866,1.71157c-0.23231,0.48566 -0.56447,0.85954 -0.99647,1.12167c-0.43187,0.26213 -0.93975,0.3932 -1.52365,0.3932zM244.29535,174.00548c0.66724,0 1.18704,-0.22492 1.5594,-0.67476c0.37236,-0.44984 0.55854,-1.09185 0.55854,-1.92604v0c0,-0.83405 -0.18465,-1.47452 -0.55395,-1.92144c-0.36943,-0.44691 -0.89076,-0.67037 -1.56399,-0.67037v0c-0.66737,0 -1.18724,0.22492 -1.5596,0.67476c-0.37236,0.44984 -0.55854,1.08886 -0.55854,1.91705v0c0,0.82819 0.18618,1.46874 0.55854,1.92164c0.37236,0.45277 0.89223,0.67916 1.5596,0.67916z"/></g></g></g></svg>