<svg version="1.1" xmlns="http://www.w3.org/2000/svg" xmlns:xlink="http://www.w3.org/1999/xlink" width="33.52598" height="34.20328" viewBox="0,0,33.52598,34.20328"><g transform="translate(-223.23701,-162.89836)"><g data-paper-data="{&quot;isPaintingLayer&quot;:true}" stroke="none" stroke-linecap="butt" stroke-linejoin="miter" stroke-miterlimit="10" stroke-dasharray="" stroke-dashoffset="0" style="mix-blend-mode: normal"><path d="M231.23701,197.10164c-4.41828,0 -8,-3.58172 -8,-8v-18.20328c0,-4.41828 3.58172,-8 8,-8h17.52598c4.41828,0 8,3.58172 8,8v18.20328c0,4.41828 -3.58172,8 -8,8z" data-paper-data="{&quot;index&quot;:null}" fill="#443b46" fill-rule="nonzero" stroke-width="0"/><g fill="#ffffff" fill-rule="evenodd" stroke-width="1"><path d="M227.26607,180c0,-7.03276 5.70117,-12.73394 12.73394,-12.73394c7.03276,0 12.73393,5.70117 12.73393,12.73394c0,7.03276 -5.70117,12.73394 -12.73393,12.73394c-7.03276,0 -12.73394,-5.70117 -12.73394,-12.73394zM240,187.64036c2.90525,0 4.44663,-2.4246 5.31565,-4.20061c0.20304,-0.415 -0.10805,-0.89297 -0.5701,-0.89297h-9.49111c-0.46205,0 -0.77314,0.47797 -0.5701,0.89297c0.86903,1.776 2.41041,4.20061 5.31565,4.20061zM237.10004,177.98301c0.29256,0.19502 0.68789,0.11594 0.88297,-0.17662c0.19502,-0.29256 0.11594,-0.68789 -0.17662,-0.88297l-1.20374,-0.80249c-0.6416,-0.42767 -1.47745,-0.42767 -2.11905,0l-1.20374,0.80249c-0.29256,0.19508 -0.37164,0.59041 -0.17662,0.88297c0.19508,0.29256 0.59041,0.37164 0.88297,0.17662l1.20374,-0.80249c0.21387,-0.14262 0.49248,-0.14262 0.70635,0zM242.89996,177.98301c-0.29256,0.19502 -0.68789,0.11594 -0.88297,-0.17662c-0.19502,-0.29256 -0.11594,-0.68789 0.17662,-0.88297l1.20374,-0.80249c0.6416,-0.42767 1.47745,-0.42767 2.11905,0l1.20374,0.80249c0.29256,0.19508 0.37164,0.59041 0.17662,0.88297c-0.19508,0.29256 -0.59041,0.37164 -0.88297,0.17662l-1.20374,-0.80249c-0.21387,-0.14262 -0.49248,-0.14262 -0.70635,0z"/><path d="M240,191.46054c6.32947,0 11.46054,-5.13108 11.46054,-11.46054c0,-6.32947 -5.13108,-11.46054 -11.46054,-11.46054c-6.32947,0 -11.46054,5.13108 -11.46054,11.46054c0,6.32947 5.13108,11.46054 11.46054,11.46054zM233.10324,177.80639l-1.05953,0.70635c-0.58512,-0.87775 -0.34795,-2.06366 0.5298,-2.64885l1.20374,-0.80249c1.06933,-0.71285 2.46243,-0.71285 3.53176,0l1.20374,0.80249c0.87775,0.58519 1.11492,1.7711 0.5298,2.64885l-1.05953,-0.70635c0.19502,-0.29256 0.11594,-0.68789 -0.17662,-0.88297l-1.20374,-0.80249c-0.6416,-0.42767 -1.47745,-0.42767 -2.11905,0l-1.20336,0.80224c-0.00013,0.00013 0.00013,-0.00006 0,0c-0.29256,0.19508 -0.37202,0.59066 -0.177,0.88323zM233.98621,177.98301c-0.29256,0.19502 -0.68789,0.11594 -0.88297,-0.17662l-1.05953,0.70635c0.58519,0.87775 1.7711,1.11492 2.64885,0.52979l0.85056,-0.56704l0.85056,0.56704c0.87775,0.58512 2.06366,0.34796 2.64885,-0.52979l-1.05953,-0.70635c-0.19508,0.29256 -0.59041,0.37164 -0.88297,0.17662l-1.20374,-0.80249c-0.21387,-0.14262 -0.49248,-0.14262 -0.70635,0zM240.95746,178.51274c-0.58512,-0.87775 -0.34795,-2.06366 0.5298,-2.64885l1.20374,-0.80249c1.06933,-0.71285 2.46242,-0.71285 3.53176,0l1.20374,0.80249c0.87775,0.58519 1.11492,1.7711 0.5298,2.64885c-0.58519,0.87775 -1.7711,1.11492 -2.64885,0.52979l-0.85056,-0.56704l-0.85056,0.56704c-0.87775,0.58512 -2.06366,0.34796 -2.64885,-0.52979zM242.19361,176.92342c-0.29256,0.19508 -0.37164,0.59041 -0.17662,0.88297c0.19508,0.29256 0.59041,0.37164 0.88297,0.17662l1.20374,-0.80249c0.21387,-0.14262 0.49248,-0.14262 0.70635,0l1.20374,0.80249c0.29256,0.19502 0.68789,0.11594 0.88297,-0.17662c0.19502,-0.29256 0.11594,-0.68789 -0.17662,-0.88297l-1.20374,-0.80249c-0.6316,-0.42098 -1.45135,-0.42761 -2.08881,-0.01967c-0.01012,0.00643 -0.02025,0.01305 -0.03024,0.01967zM233.54052,183.99941c-0.63581,-1.2995 0.35324,-2.72602 1.71392,-2.72602h9.49111c1.36068,0 2.34973,1.42652 1.71392,2.72602c-0.86807,1.77403 -2.7208,4.91434 -6.45948,4.91434c-3.73868,0 -5.59141,-3.14032 -6.45948,-4.91434zM252.73394,180c0,7.03276 -5.70117,12.73394 -12.73393,12.73394c-7.03276,0 -12.73394,-5.70117 -12.73394,-12.73394c0,-7.03276 5.70117,-12.73394 12.73394,-12.73394c7.03276,0 12.73393,5.70117 12.73393,12.73394zM235.25444,182.54679c-0.46205,0 -0.77314,0.47797 -0.5701,0.89297c0.86903,1.776 2.41041,4.20061 5.31565,4.20061c2.90525,0 4.44663,-2.4246 5.31565,-4.20061c0.20304,-0.415 -0.10805,-0.89297 -0.5701,-0.89297z"/></g></g></g></svg>