<svg version="1.1" xmlns="http://www.w3.org/2000/svg" xmlns:xlink="http://www.w3.org/1999/xlink" width="33.52598" height="34.20328" viewBox="0,0,33.52598,34.20328"><g transform="translate(-223.23701,-162.89836)"><g data-paper-data="{&quot;isPaintingLayer&quot;:true}" fill-rule="nonzero" stroke="none" stroke-linecap="butt" stroke-linejoin="miter" stroke-miterlimit="10" stroke-dasharray="" stroke-dashoffset="0" style="mix-blend-mode: normal"><path d="M231.23701,197.10164c-4.41828,0 -8,-3.58172 -8,-8v-18.20328c0,-4.41828 3.58172,-8 8,-8h17.52598c4.41828,0 8,3.58172 8,8v18.20328c0,4.41828 -3.58172,8 -8,8z" data-paper-data="{&quot;index&quot;:null}" fill="#443b46" stroke-width="0"/><path d="M245.13413,168.87975c0.45654,-0.23618 1.01808,-0.05754 1.25426,0.399l7.12718,13.77706c0.23618,0.45654 0.05754,1.01808 -0.399,1.25426l-6.06299,3.13652c-1.67395,0.86597 -3.73296,0.21098 -4.59893,-1.46297l-0.1439,-0.27764l-10.19722,5.27526c-1.06524,0.55107 -2.37552,0.13426 -2.9266,-0.93098l-2.56351,-4.95534c-0.55107,-1.06524 -0.13426,-2.37552 0.93098,-2.9266l10.19666,-5.27634l-0.1429,-0.27675c-0.86597,-1.67395 -0.21098,-3.73296 1.46297,-4.59893zM234.36663,183.18207l-2.75103,1.42596c-0.45635,0.23654 -0.63453,0.79823 -0.39799,1.25457c0.23654,0.45635 0.79823,0.63453 1.25457,0.39799l2.75103,-1.42596c0.45635,-0.23654 0.63453,-0.79823 0.39799,-1.25457c-0.23654,-0.45635 -0.79823,-0.63453 -1.25457,-0.39799z" fill="#ffffff" stroke-width="1"/></g></g></svg>