<svg version="1.1" xmlns="http://www.w3.org/2000/svg" xmlns:xlink="http://www.w3.org/1999/xlink" width="33.52598" height="34.20328" viewBox="0,0,33.52598,34.20328"><g transform="translate(-223.23701,-162.89836)"><g data-paper-data="{&quot;isPaintingLayer&quot;:true}" fill-rule="nonzero" stroke-linecap="butt" stroke-linejoin="miter" stroke-miterlimit="10" stroke-dasharray="" stroke-dashoffset="0" style="mix-blend-mode: normal"><path d="M231.23701,197.10164c-4.41828,0 -8,-3.58172 -8,-8v-18.20328c0,-4.41828 3.58172,-8 8,-8h17.52598c4.41828,0 8,3.58172 8,8v18.20328c0,4.41828 -3.58172,8 -8,8z" fill="#443b46" stroke="none" stroke-width="0"/><g fill="#ffffff" stroke="#ffffff" stroke-width="0.5"><path d="M230.6845,186.77518c-0.24216,0 -0.43323,-0.07327 -0.57323,-0.21982c-0.14,-0.14654 -0.21,-0.34075 -0.21,-0.58262v0v-11.99643c0,-0.22935 0.07313,-0.41402 0.21939,-0.55402c0.14654,-0.14 0.34075,-0.21 0.58262,-0.21v0h6.95346c0.22935,0 0.40762,0.05719 0.53482,0.17158c0.12748,0.11467 0.19122,0.28029 0.19122,0.49683v0c0,0.20374 -0.06374,0.36295 -0.19122,0.47762c-0.12719,0.11467 -0.30546,0.17201 -0.53482,0.17201v0h-6.20822v4.64176h5.82621c0.22935,0 0.40762,0.05734 0.53482,0.17201c0.12748,0.11467 0.19122,0.28029 0.19122,0.49683v0c0,0.20374 -0.06374,0.36295 -0.19122,0.47762c-0.12719,0.11439 -0.30547,0.17158 -0.53482,0.17158v0h-5.82621v5.48261c0,0.24187 -0.06687,0.43608 -0.20061,0.58262c-0.13374,0.14654 -0.32154,0.21982 -0.56341,0.21982z"/><path d="M245.39978,186.88645c-1.27366,0 -2.3753,-0.27701 -3.30493,-0.83103c-0.92963,-0.55402 -1.64599,-1.34991 -2.14908,-2.38768c-0.50309,-1.03805 -0.75463,-2.2639 -0.75463,-3.67755v0c0,-1.40085 0.25154,-2.62016 0.75463,-3.65792c0.50309,-1.03805 1.21945,-1.83408 2.14908,-2.3881c0.92963,-0.55374 2.03128,-0.83061 3.30493,-0.83061v0c0.85309,0 1.65851,0.13687 2.41627,0.41061c0.75776,0.27374 1.41679,0.66528 1.97707,1.17463v0c0.20374,0.19122 0.30561,0.41417 0.30561,0.66884v0c0,0.17813 -0.05094,0.33406 -0.1528,0.4678c-0.10187,0.13374 -0.2228,0.20061 -0.3628,0.20061v0c-0.1528,0 -0.33748,-0.07 -0.55402,-0.21v0c-0.64935,-0.50935 -1.23837,-0.86603 -1.76707,-1.07006c-0.52841,-0.20374 -1.1365,-0.30561 -1.82426,-0.30561v0c-1.4774,0 -2.61404,0.48075 -3.40993,1.44225c-0.79589,0.9615 -1.19384,2.32735 -1.19384,4.09755v0c0,1.783 0.39795,3.15526 1.19384,4.11676c0.79589,0.9615 1.93254,1.44225 3.40993,1.44225v0c0.67496,0 1.27991,-0.10187 1.81487,-0.30561c0.53496,-0.20374 1.12711,-0.56028 1.77646,-1.06963v0c0.21654,-0.14028 0.40122,-0.21043 0.55402,-0.21043v0c0.14,0 0.26094,0.06374 0.3628,0.19122c0.10187,0.12748 0.1528,0.28669 0.1528,0.47762v0c0,0.25467 -0.10187,0.47748 -0.30561,0.66841v0c-0.56028,0.50963 -1.21931,0.90132 -1.97707,1.17506c-0.75776,0.27374 -1.56319,0.41061 -2.41627,0.41061z"/></g></g></g></svg>