<svg version="1.1" xmlns="http://www.w3.org/2000/svg" xmlns:xlink="http://www.w3.org/1999/xlink" width="33.52598" height="34.20328" viewBox="0,0,33.52598,34.20328"><g transform="translate(-223.23701,-162.89836)"><g data-paper-data="{&quot;isPaintingLayer&quot;:true}" fill-rule="nonzero" stroke="none" stroke-linecap="butt" stroke-linejoin="miter" stroke-miterlimit="10" stroke-dasharray="" stroke-dashoffset="0" style="mix-blend-mode: normal"><path d="M231.23701,197.10164c-4.41828,0 -8,-3.58172 -8,-8v-18.20328c0,-4.41828 3.58172,-8 8,-8h17.52598c4.41828,0 8,3.58172 8,8v18.20328c0,4.41828 -3.58172,8 -8,8z" data-paper-data="{&quot;index&quot;:null}" fill="#443b46" stroke-width="0"/><path d="M252.5,180c0,6.90524 -5.59476,12.5 -12.5,12.5c-6.90524,0 -12.5,-5.59476 -12.5,-12.5c0,-6.90524 5.59476,-12.5 12.5,-12.5c6.90524,0 12.5,5.59476 12.5,12.5zM235.97278,180.80645c0.89213,0 1.6129,-0.72077 1.6129,-1.6129c0,-0.14617 -0.05041,-0.27722 -0.08568,-0.4133c0.03024,0 0.06048,0.01008 0.08568,0.01008c0.34778,0 0.66532,-0.22681 0.77117,-0.5746c0.13105,-0.42338 -0.11089,-0.87702 -0.53931,-1.00302l-4.03226,-1.20968c-0.42842,-0.12601 -0.87702,0.11089 -1.00302,0.53931c-0.13105,0.42338 0.11089,0.87702 0.53931,1.00302l1.5625,0.46875c-0.32258,0.29738 -0.52923,0.71069 -0.52923,1.17944c0,0.89213 0.72581,1.6129 1.61794,1.6129zM244.05746,185.93246c-1.00806,-1.20968 -2.48992,-1.90524 -4.0625,-1.90524c-1.57258,0 -3.05444,0.69556 -4.0625,1.90524c-0.68548,0.82157 0.55947,1.85484 1.23992,1.03326c1.40625,-1.68347 4.24899,-1.68347 5.6502,0c0.6754,0.81149 1.93045,-0.20161 1.23488,-1.03326zM247.22782,176.54234c-0.12601,-0.42338 -0.57964,-0.66532 -1.00302,-0.53931l-4.03226,1.20968c-0.42338,0.12601 -0.66532,0.5746 -0.53931,1.00302c0.10585,0.34778 0.42338,0.5746 0.77117,0.5746c0.03024,0 0.05545,-0.00504 0.08568,-0.01008c-0.04033,0.13105 -0.08568,0.26714 -0.08568,0.4133c0,0.89213 0.72077,1.6129 1.6129,1.6129c0.89213,0 1.6129,-0.72077 1.6129,-1.6129c0,-0.46875 -0.21169,-0.88709 -0.52923,-1.17944l1.5625,-0.46875c0.42842,-0.12601 0.67036,-0.5746 0.54435,-1.00302z" fill="#ffffff" stroke-width="1"/></g></g></svg>