<svg version="1.1" xmlns="http://www.w3.org/2000/svg" xmlns:xlink="http://www.w3.org/1999/xlink" width="33.52598" height="34.20328" viewBox="0,0,33.52598,34.20328"><g transform="translate(-223.23701,-162.89836)"><g data-paper-data="{&quot;isPaintingLayer&quot;:true}" fill-rule="nonzero" stroke="none" stroke-linecap="butt" stroke-linejoin="miter" stroke-miterlimit="10" stroke-dasharray="" stroke-dashoffset="0" style="mix-blend-mode: normal"><path d="M231.23701,197.10164c-4.41828,0 -8,-3.58172 -8,-8v-18.20328c0,-4.41828 3.58172,-8 8,-8h17.52598c4.41828,0 8,3.58172 8,8v18.20328c0,4.41828 -3.58172,8 -8,8z" data-paper-data="{&quot;index&quot;:null}" fill="#443b46" stroke-width="0"/><g fill="#ffffff" stroke-width="1"><path d="M241.57724,175.02096c-0.49493,-0.16825 -1.0255,-0.25949 -1.57724,-0.25949c-2.70504,0 -4.8979,2.19286 -4.8979,4.8979c0,0.55175 0.09125,1.08232 0.25949,1.57724l-2.89256,2.89258c-2.14741,-1.11721 -3.4893,-2.70645 -3.4893,-4.46982c0,-3.38129 4.93395,-6.12237 11.02027,-6.12237c0.98692,0 1.94361,0.07208 2.85388,0.20729z"/><path d="M239.05813,184.46678c0.30478,0.05939 0.6197,0.09049 0.94187,0.09049c2.70499,0 4.8979,-2.19291 4.8979,-4.8979c0,-0.32216 -0.0311,-0.63709 -0.09049,-0.94187l3.24057,-3.24061c1.84357,1.09446 2.97229,2.56519 2.97229,4.18247c0,3.38126 -4.9339,6.12238 -11.02027,6.12238c-0.73273,0 -1.44868,-0.03967 -2.14136,-0.11547z"/><path d="M247.09325,171.34165c0.47815,-0.4782 1.2535,-0.4782 1.73165,0c0.47815,0.47818 0.47815,1.25348 0,1.73167l-15.585,15.58497c-0.4782,0.47828 -1.25348,0.47828 -1.73168,0c-0.47818,-0.47815 -0.47818,-1.25337 0,-1.73165z"/></g></g></g></svg>