<svg version="1.1" xmlns="http://www.w3.org/2000/svg" xmlns:xlink="http://www.w3.org/1999/xlink" width="33.52598" height="34.20328" viewBox="0,0,33.52598,34.20328"><g transform="translate(-223.23701,-162.89836)"><g data-paper-data="{&quot;isPaintingLayer&quot;:true}" fill-rule="nonzero" stroke="none" stroke-linecap="butt" stroke-linejoin="miter" stroke-miterlimit="10" stroke-dasharray="" stroke-dashoffset="0" style="mix-blend-mode: normal"><path d="M231.23701,197.10164c-4.41828,0 -8,-3.58172 -8,-8v-18.20328c0,-4.41828 3.58172,-8 8,-8h17.52598c4.41828,0 8,3.58172 8,8v18.20328c0,4.41828 -3.58172,8 -8,8z" fill="#443b46" stroke-width="0"/><path d="M240,192.33579c-1.41614,0 -4.21634,-1.68012 -6.32821,-4.12012c-2.99758,-3.4614 -4.77392,-8.25628 -4.77392,-14.38343c-0.00019,-0.50477 0.30717,-0.95872 0.77592,-1.14599c4.03871,-1.61598 7.25339,-3.22332 9.64158,-4.81462c0.41453,-0.27657 0.95474,-0.27657 1.36926,0c2.38696,1.59131 5.60411,3.19988 9.64158,4.81462c0.46874,0.18727 0.7761,0.64122 0.77592,1.14599c0,6.12838 -1.77634,10.92326 -4.77392,14.38343c-2.11064,2.43877 -4.91084,4.12012 -6.32821,4.12012z" fill="#ffffff" stroke-width="1"/></g></g></svg>