<svg version="1.1" xmlns="http://www.w3.org/2000/svg" xmlns:xlink="http://www.w3.org/1999/xlink" width="33.52598" height="34.20328" viewBox="0,0,33.52598,34.20328"><g transform="translate(-223.23701,-162.89836)"><g data-paper-data="{&quot;isPaintingLayer&quot;:true}" fill-rule="nonzero" stroke="none" stroke-linecap="butt" stroke-linejoin="miter" stroke-miterlimit="10" stroke-dasharray="" stroke-dashoffset="0" style="mix-blend-mode: normal"><path d="M231.23701,197.10164c-4.41828,0 -8,-3.58172 -8,-8v-18.20328c0,-4.41828 3.58172,-8 8,-8h17.52598c4.41828,0 8,3.58172 8,8v18.20328c0,4.41828 -3.58172,8 -8,8z" data-paper-data="{&quot;index&quot;:null}" fill="#443b46" stroke-width="0"/><g fill="#ffffff" stroke-width="1"><path d="M237.38772,183.23098c0.41247,0.54995 0.27498,1.51238 -0.27498,1.92484c-1.51237,1.09991 -3.29972,1.64986 -5.08708,1.64986h-3.02475c-0.82493,0 -1.37489,-0.54995 -1.37489,-1.37489c0,-0.82493 0.54995,-1.37488 1.37489,-1.37488h3.02475c1.2374,0 2.47479,-0.41247 3.43721,-1.09991c0.54995,-0.54995 1.37489,-0.41247 1.92484,0.27498z"/><path d="M240.41247,177.86893c-0.54995,-0.54995 -0.68744,-1.37489 -0.13749,-1.92484c1.64986,-1.78735 3.84968,-2.88726 6.32447,-2.88726h1.09991l-0.41247,-0.41247c-0.54995,-0.54995 -0.54995,-1.37489 0,-1.92484c0.54995,-0.54995 1.37488,-0.54995 1.92484,0l2.74977,2.74977c0.13749,0.13749 0.13749,0.27498 0.27498,0.41247c0.13749,0.41247 0.13749,0.82493 0,1.09991c0,0.13749 -0.13749,0.27498 -0.27498,0.41247l-2.74977,2.74977c-0.27498,0.27498 -0.68744,0.41247 -0.96242,0.41247c-0.27498,0 -0.68744,-0.13749 -0.96242,-0.41247c-0.54995,-0.54995 -0.54995,-1.37488 0,-1.92484l0.41247,-0.41247h-1.09991c-1.64986,0 -3.16224,0.68744 -4.12466,1.92484c-0.27498,0.27498 -0.68744,0.41247 -1.09991,0.41247c-0.27498,0 -0.68744,0 -0.96242,-0.27498z"/><path d="M251.9615,186.53071l-2.74977,2.74977c-0.27498,0.27498 -0.68744,0.41247 -0.96242,0.41247c-0.27498,0 -0.68744,-0.13749 -0.96242,-0.41247c-0.54995,-0.54995 -0.54995,-1.37489 0,-1.92484l0.41247,-0.41247h-2.06233c-3.16224,0 -6.0495,-1.78735 -7.42438,-4.67461l-1.64986,-3.29972c-0.96242,-1.92484 -2.74977,-3.16224 -4.94959,-3.16224h-2.61228c-0.82493,0 -1.37489,-0.54995 -1.37489,-1.37488c0,-0.82493 0.54995,-1.37489 1.37489,-1.37489h2.61228c3.16224,0 6.0495,1.78735 7.42438,4.53712l1.64986,3.29972c0.96242,1.92484 2.74977,3.16224 4.94959,3.16224h2.06233l-0.41247,-0.41247c-0.54995,-0.54995 -0.54995,-1.37489 0,-1.92484c0.54995,-0.54995 1.37488,-0.54995 1.92484,0l2.74977,2.74977c0.54995,0.54995 0.54995,1.37489 0,2.06233z"/></g></g></g></svg>