<svg version="1.1" xmlns="http://www.w3.org/2000/svg" xmlns:xlink="http://www.w3.org/1999/xlink" width="33.52598" height="34.20328" viewBox="0,0,33.52598,34.20328"><g transform="translate(-223.23701,-162.89836)"><g data-paper-data="{&quot;isPaintingLayer&quot;:true}" stroke="none" stroke-linecap="butt" stroke-linejoin="miter" stroke-miterlimit="10" stroke-dasharray="" stroke-dashoffset="0" style="mix-blend-mode: normal"><path d="M231.23701,197.10164c-4.41828,0 -8,-3.58172 -8,-8v-18.20328c0,-4.41828 3.58172,-8 8,-8h17.52598c4.41828,0 8,3.58172 8,8v18.20328c0,4.41828 -3.58172,8 -8,8z" data-paper-data="{&quot;index&quot;:null}" fill="#443b46" fill-rule="nonzero" stroke-width="0"/><path d="M240.4592,185.1463c0,0.87331 -0.94545,1.41909 -1.70168,0.98244l-8.91365,-5.14623c-0.75623,-0.43665 -0.75623,-1.52834 0,-1.96499l8.91365,-5.14626c0.75622,-0.43666 1.70168,0.10917 1.70168,0.98247v3.96106l8.56242,-4.94352c0.7563,-0.43666 1.70168,0.10915 1.70168,0.98247v10.29256c0,0.87331 -0.94537,1.41909 -1.70168,0.98244l-8.56242,-4.94351z" data-paper-data="{&quot;index&quot;:null}" fill="#ffffff" fill-rule="evenodd" stroke-width="1"/></g></g></svg>