<svg version="1.1" xmlns="http://www.w3.org/2000/svg" xmlns:xlink="http://www.w3.org/1999/xlink" width="33.52598" height="34.20328" viewBox="0,0,33.52598,34.20328"><g transform="translate(-223.23701,-162.89836)"><g data-paper-data="{&quot;isPaintingLayer&quot;:true}" fill-rule="nonzero" stroke="none" stroke-linecap="butt" stroke-linejoin="miter" stroke-miterlimit="10" stroke-dasharray="" stroke-dashoffset="0" style="mix-blend-mode: normal"><path d="M231.23701,197.10164c-4.41828,0 -8,-3.58172 -8,-8v-18.20328c0,-4.41828 3.58172,-8 8,-8h17.52598c4.41828,0 8,3.58172 8,8v18.20328c0,4.41828 -3.58172,8 -8,8z" data-paper-data="{&quot;index&quot;:null}" fill="#443b46" stroke-width="0"/><path d="M253.29138,180.63738l-3.3571,3.3571c-0.16594,0.16509 -0.38294,0.24848 -0.59994,0.24848c-0.217,0 -0.434,-0.0834 -0.59994,-0.24848c-0.33188,-0.33188 -0.33188,-0.86885 0,-1.19987l1.98022,-1.98107h-9.8662v9.86791l1.94788,-1.94703c0.33103,-0.33188 0.86799,-0.33188 1.19987,0c0.33103,0.33103 0.33103,0.86799 0,1.19987l-3.39454,3.39369c-0.02638,0.02723 -0.06127,0.03829 -0.09105,0.06042c-0.05872,0.0451 -0.11488,0.09361 -0.18381,0.12254c-0.10382,0.04255 -0.21445,0.06553 -0.32507,0.06553c0,0 0,0 -0.00085,0c0,0 0,0 -0.00085,0c-0.01021,0 -0.01787,-0.00511 -0.02808,-0.00596c-0.20679,-0.00681 -0.41187,-0.08425 -0.57015,-0.24253l-3.39369,-3.39369c-0.33188,-0.33188 -0.33188,-0.86885 0,-1.19987c0.33103,-0.33188 0.86799,-0.33188 1.19987,0l1.98532,1.98532v-9.9062h-9.90705l1.98192,1.98107c0.33103,0.33103 0.33103,0.86799 0,1.19987c-0.16509,0.16509 -0.38294,0.24848 -0.59994,0.24848c-0.217,0 -0.43485,-0.0834 -0.59994,-0.24848l-3.39624,-3.39454c-0.15913,-0.15913 -0.24848,-0.37443 -0.24848,-0.59994c0,-0.11318 0.02298,-0.22381 0.06638,-0.32677c0.04255,-0.10297 0.10552,-0.19658 0.18296,-0.27401l3.39539,-3.39284c0.33103,-0.33188 0.86885,-0.33188 1.19987,0c0.33103,0.33103 0.33103,0.86799 0,1.19987l-1.94703,1.94533h9.87216v-9.87301l-1.98703,1.98788c-0.33188,0.33103 -0.86885,0.33103 -1.19987,0c-0.33188,-0.33188 -0.33188,-0.86885 0,-1.19987l3.37837,-3.37922c0.14381,-0.16254 0.35486,-0.26295 0.6144,-0.2638c0.11063,0 0.22125,0.02213 0.32507,0.06553c0.10467,0.04255 0.19828,0.10552 0.27657,0.18381l3.39369,3.39369c0.33103,0.33103 0.33103,0.86799 0,1.19987c-0.16594,0.16509 -0.38294,0.24848 -0.59994,0.24848c-0.217,0 -0.434,-0.0834 -0.59994,-0.24848l-1.94618,-1.94618v9.83131h9.83131l-1.94533,-1.94533c-0.33188,-0.33188 -0.33188,-0.86885 0,-1.19987c0.33103,-0.33188 0.86799,-0.33188 1.19987,0l3.39284,3.39284c0.07829,0.07829 0.14126,0.17275 0.18466,0.27657c0.04255,0.10382 0.06467,0.21445 0.06467,0.32507c0,0.27146 -0.10978,0.49101 -0.28508,0.63653z" fill="#ffffff" stroke-width="1"/></g></g></svg>