<svg version="1.1" xmlns="http://www.w3.org/2000/svg" xmlns:xlink="http://www.w3.org/1999/xlink" width="393" height="155" viewBox="0,0,393,155"><defs><linearGradient x1="248.21898" y1="111.5197" x2="385.17958" y2="248.4803" gradientUnits="userSpaceOnUse" id="color-1"><stop offset="0" stop-color="#595959"/><stop offset="1" stop-color="#595959"/></linearGradient><linearGradient x1="259.85491" y1="148.56898" x2="259.85491" y2="187.67696" gradientTransform="translate(-266.14585,-209.93359) scale(1.18002,1.18002)" gradientUnits="userSpaceOnUse" id="color-2"><stop offset="0" stop-color="#ffffff"/><stop offset="1" stop-color="#ffffff" stop-opacity="0.8"/></linearGradient><linearGradient x1="240.19444" y1="187.68227" x2="240.19444" y2="204.37451" gradientTransform="translate(-623.5455,-553.5056) scale(2.76465,2.76472)" gradientUnits="userSpaceOnUse" id="color-3"><stop offset="0" stop-color="#ffffff"/><stop offset="1" stop-color="#ffffff" stop-opacity="0.8"/></linearGradient></defs><g transform="translate(-123.5,-102.5)"><g stroke-miterlimit="10"><path d="M155.81748,179.53096c-0.38127,-25.39835 14.66658,-30.95684 28.14259,-30.95684c25.45959,0 126.76874,0 170.73171,0c15.36416,0 30.95685,4.01553 31.89493,29.08068c1.00171,26.76514 -16.13727,33.77111 -30.95685,33.77111c-42.84791,0 -142.708,0 -168.85554,0c-14.58944,0 -30.57292,-6.31893 -30.95685,-31.89494z" fill="url(#color-1)" stroke="none" stroke-width="0"/><text transform="translate(225.54264,177.90613) scale(0.84744,0.84744)" font-size="40" xml:space="preserve" fill="#ffffff" stroke="url(#color-2)" stroke-width="1" font-family="&quot;Torus&quot;, Handwriting" font-weight="normal" text-anchor="start"><tspan x="0" dy="0">exit</tspan></text><text transform="translate(225.54264,200.20298) scale(0.36171,0.3617)" font-size="40" xml:space="preserve" fill="#ffffff" stroke="url(#color-3)" stroke-width="0" font-family="&quot;Torus&quot;, Handwriting" font-weight="normal" text-anchor="start"><tspan x="0" dy="0">don't leave us!!!!!!!!!</tspan></text><path d="M166.71669,180.01876c0,-13.72941 11.12988,-24.85929 24.85929,-24.85929c13.72941,0 24.85929,11.12988 24.85929,24.85929c0,13.72941 -11.12988,24.85929 -24.85929,24.85929c-13.72941,0 -24.85929,-11.12988 -24.85929,-24.85929z" fill="#ffffff" stroke="none" stroke-width="0"/><path d="M205.73314,194.17592c0,0.86875 -0.70426,1.57302 -1.57302,1.57302h-25.16829c-0.86875,0 -1.57302,-0.70426 -1.57302,-1.57302c0,-0.86875 0.70426,-1.57302 1.57302,-1.57302h1.57302v-26.74131c0,-0.86875 0.70426,-1.57302 1.57302,-1.57302h18.87622c0.86875,0 1.57302,0.70426 1.57302,1.57302v26.74131h1.57302c0.86875,0 1.57302,0.70426 1.57302,1.57302zM183.71089,181.59177c0,0.86875 0.70426,1.57302 1.57302,1.57302c0.86875,0 1.57302,-0.70426 1.57302,-1.57302v-3.14604c0,-0.86875 -0.70426,-1.57302 -1.57302,-1.57302c-0.86875,0 -1.57302,0.70426 -1.57302,1.57302z" fill="#595959" stroke="none" stroke-width="1"/><path d="M123.5,257.5v-155h393v155z" fill="none" stroke="none" stroke-width="none"/></g></g></svg>