<svg version="1.1" xmlns="http://www.w3.org/2000/svg" xmlns:xlink="http://www.w3.org/1999/xlink" width="393" height="155" viewBox="0,0,393,155"><defs><linearGradient x1="248.21898" y1="111.5197" x2="385.17958" y2="248.4803" gradientUnits="userSpaceOnUse" id="color-1"><stop offset="0" stop-color="#ff4c4c"/><stop offset="1" stop-color="#ff5c5c"/></linearGradient><linearGradient x1="259.85391" y1="148.56841" x2="259.85391" y2="187.67624" gradientTransform="translate(-266.14586,-209.93359) scale(1.18002,1.18002)" gradientUnits="userSpaceOnUse" id="color-2"><stop offset="0" stop-color="#ffffff"/><stop offset="1" stop-color="#ffffff" stop-opacity="0.8"/></linearGradient><linearGradient x1="240.19481" y1="187.68212" x2="240.19481" y2="204.37435" gradientTransform="translate(-623.5455,-553.5056) scale(2.76465,2.76472)" gradientUnits="userSpaceOnUse" id="color-3"><stop offset="0" stop-color="#ffffff"/><stop offset="1" stop-color="#ffffff" stop-opacity="0.8"/></linearGradient></defs><g transform="translate(-123.5,-102.5)"><g stroke-miterlimit="10"><path d="M155.81748,179.53096c-0.38127,-25.39835 14.66658,-30.95684 28.14259,-30.95684c25.45959,0 126.76874,0 170.73171,0c15.36416,0 30.95685,4.01553 31.89493,29.08068c1.00171,26.76514 -16.13727,33.77111 -30.95685,33.77111c-42.84791,0 -142.708,0 -168.85554,0c-14.58944,0 -30.57292,-6.31893 -30.95685,-31.89494z" fill="url(#color-1)" stroke="none" stroke-width="0"/><text transform="translate(225.54264,177.90613) scale(0.84744,0.84744)" font-size="40" xml:space="preserve" fill="#ffffff" stroke="url(#color-2)" stroke-width="1" font-family="&quot;Torus&quot;, Handwriting" font-weight="normal" text-anchor="start"><tspan x="0" dy="0">help</tspan></text><text transform="translate(225.54264,200.20298) scale(0.36171,0.3617)" font-size="40" xml:space="preserve" fill="#ffffff" stroke="url(#color-3)" stroke-width="0" font-family="&quot;Torus&quot;, Handwriting" font-weight="normal" text-anchor="start"><tspan x="0" dy="0">i'll be there for you</tspan></text><path d="M166.71669,180.01876c0,-13.72941 11.12988,-24.85929 24.85929,-24.85929c13.72941,0 24.85929,11.12988 24.85929,24.85929c0,13.72941 -11.12988,24.85929 -24.85929,24.85929c-13.72941,0 -24.85929,-11.12988 -24.85929,-24.85929z" fill="#ffffff" stroke="none" stroke-width="0"/><path d="M199.63614,172.29215c0.01068,0.82726 -0.09066,1.65217 -0.30123,2.45225c-0.18283,0.67501 -0.44691,1.32534 -0.78642,1.93673c-0.31119,0.55242 -0.67184,1.07547 -1.07754,1.56273c-0.39422,0.47104 -0.78035,0.91782 -1.14829,1.33024l-0.04852,0.05256c-0.34368,0.3639 -0.6631,0.71364 -0.94612,1.04317c-0.30587,0.35513 -0.57668,0.73901 -0.80866,1.14627c-0.24294,0.4304 -0.42914,0.89044 -0.55393,1.36865c-0.14074,0.56723 -0.20801,1.15019 -0.20014,1.73457v0.10109c-0.04909,1.11326 -0.96592,1.99056 -2.08027,1.99056c-1.11435,0 -2.03118,-0.8773 -2.08027,-1.99056v-0.10109c-0.00839,-0.94396 0.10509,-1.88506 0.33761,-2.79997c0.21653,-0.82632 0.5386,-1.6213 0.95826,-2.36532c0.36622,-0.63899 0.7927,-1.24148 1.27364,-1.79926c0.31942,-0.37198 0.67725,-0.76822 1.06136,-1.17053c0.33559,-0.37805 0.68736,-0.78844 1.05125,-1.21905c0.24291,-0.29252 0.45876,-0.60649 0.6449,-0.93804c0.17147,-0.3166 0.30449,-0.65255 0.39624,-1.00072c0.10912,-0.43608 0.15877,-0.88491 0.14758,-1.33429c0.00851,-0.52852 -0.09268,-1.05306 -0.29718,-1.54049c-0.19372,-0.47758 -0.47947,-0.91241 -0.841,-1.2797c-0.35829,-0.36122 -0.7842,-0.64837 -1.25342,-0.84505c-0.46116,-0.19925 -0.95933,-0.29847 -1.46165,-0.29112c-0.51787,-0.00869 -1.03175,0.09189 -1.50814,0.29516c-0.9707,0.40327 -1.7415,1.17553 -2.14294,2.14698c-0.20297,0.47719 -0.30352,0.99167 -0.29516,1.51016v0.05661c0.03374,0.76509 -0.35521,1.48694 -1.01275,1.87957c-0.65753,0.39261 -1.47751,0.39261 -2.13505,0c-0.65753,-0.39261 -1.04649,-1.11448 -1.01275,-1.87957v-0.05661c-0.00845,-1.08381 0.2077,-2.15762 0.6348,-3.15376c0.82098,-1.94832 2.36942,-3.49966 4.31621,-4.32429c0.99648,-0.42828 2.07121,-0.64446 3.15579,-0.6348c1.07276,-0.009 2.13547,0.20726 3.11939,0.6348c1.93402,0.8265 3.46693,2.37828 4.26971,4.32227c0.42231,0.99948 0.6356,2.07483 0.62671,3.15983zM194.10088,192.12446c0.27978,0.66801 0.27978,1.42035 0,2.08835c-0.27398,0.64665 -0.78872,1.16138 -1.43536,1.43536l-0.01011,0.00606c-0.32264,0.13802 -0.67001,0.20887 -1.02093,0.20823c-1.09493,0.00982 -2.08778,-0.64143 -2.51492,-1.64966c-0.42966,-1.00288 -0.2019,-2.16652 0.57415,-2.9334c0.2542,-0.24379 0.55179,-0.43784 0.87739,-0.57213c0.33663,-0.14138 0.69828,-0.21358 1.06338,-0.21227c0.35089,-0.00031 0.69819,0.07053 1.02093,0.20823l0.01011,0.00606c0.31864,0.13537 0.60984,0.32791 0.8592,0.56808c0.24637,0.24055 0.44225,0.52784 0.57617,0.84505z" fill="#ff4e4e" stroke="none" stroke-width="1"/><path d="M123.5,257.5v-155h393v155z" fill="none" stroke="none" stroke-width="none"/></g></g></svg>