<svg version="1.1" xmlns="http://www.w3.org/2000/svg" xmlns:xlink="http://www.w3.org/1999/xlink" width="393" height="155" viewBox="0,0,393,155"><defs><linearGradient x1="248.21898" y1="111.5197" x2="385.17958" y2="248.4803" gradientUnits="userSpaceOnUse" id="color-1"><stop offset="0" stop-color="#5c95ff"/><stop offset="1" stop-color="#5c8fff"/></linearGradient><linearGradient x1="259.85892" y1="148.57123" x2="259.85892" y2="187.67981" gradientTransform="translate(-266.14585,-209.9336) scale(1.18002,1.18002)" gradientUnits="userSpaceOnUse" id="color-2"><stop offset="0" stop-color="#ffffff"/><stop offset="1" stop-color="#ffffff" stop-opacity="0.8"/></linearGradient><linearGradient x1="240.19294" y1="187.68289" x2="240.19294" y2="204.37514" gradientTransform="translate(-623.54549,-553.5056) scale(2.76465,2.76472)" gradientUnits="userSpaceOnUse" id="color-3"><stop offset="0" stop-color="#ffffff"/><stop offset="1" stop-color="#ffffff" stop-opacity="0.8"/></linearGradient></defs><g transform="translate(-123.5,-102.5)"><g stroke-miterlimit="10"><path d="M155.81748,179.53096c-0.38127,-25.39835 14.66658,-30.95684 28.14259,-30.95684c25.45959,0 213.07268,0 257.03565,0c15.36416,0 30.95685,4.01553 31.89493,29.08068c1.00171,26.76514 -16.13727,33.77111 -30.95685,33.77111c-42.84791,0 -229.01194,0 -255.15948,0c-14.58944,0 -30.57292,-6.31893 -30.95685,-31.89494z" fill="url(#color-1)" fill-rule="nonzero" stroke="none" stroke-width="0"/><text transform="translate(225.54264,177.90613) scale(0.84744,0.84744)" font-size="40" xml:space="preserve" fill="#ffffff" fill-rule="nonzero" stroke="url(#color-2)" stroke-width="1" font-family="&quot;Torus&quot;, Handwriting" font-weight="normal" text-anchor="start"><tspan x="0" dy="0">settings</tspan></text><text transform="translate(225.54264,200.20298) scale(0.36171,0.3617)" font-size="40" xml:space="preserve" fill="#ffffff" fill-rule="nonzero" stroke="url(#color-3)" stroke-width="0" font-family="&quot;Torus&quot;, Handwriting" font-weight="normal" text-anchor="start"><tspan x="0" dy="0">change the way the game behaves</tspan></text><path d="M166.7167,180.01876c0,-13.72941 11.12988,-24.85929 24.85929,-24.85929c13.72941,0 24.85929,11.12988 24.85929,24.85929c0,13.72941 -11.12988,24.85929 -24.85929,24.85929c-13.72941,0 -24.85929,-11.12988 -24.85929,-24.85929z" fill="#ffffff" fill-rule="nonzero" stroke="none" stroke-width="0"/><path d="M196.19343,165.91344c0.1503,0.35998 0.20904,0.77862 0.23205,1.38925c0.03395,0.89749 0.49773,1.72824 1.28141,2.17729c0.78368,0.44907 1.74052,0.43228 2.54062,0.01262c0.54423,-0.28554 0.93897,-0.44432 1.32824,-0.49517c0.85272,-0.11142 1.71509,0.11791 2.3974,0.63754c0.51189,0.38972 0.88957,1.03907 1.64509,2.33775c0.75552,1.29868 1.13321,1.94803 1.21753,2.58273c0.11216,0.84628 -0.11892,1.70216 -0.6424,2.37926c-0.23913,0.30929 -0.57497,0.56902 -1.09652,0.89424c-0.76614,0.47777 -1.25921,1.29155 -1.25921,2.18965c0,0.8981 0.49306,1.7122 1.25921,2.18997c0.52138,0.32506 0.85723,0.58495 1.09636,0.89408c0.52348,0.67715 0.75456,1.53309 0.6424,2.37938c-0.08432,0.63467 -0.462,1.28399 -1.21753,2.58262c-0.75552,1.29879 -1.13321,1.94811 -1.64509,2.33786c-0.68231,0.51961 -1.54468,0.74893 -2.3974,0.63741c-0.38927,-0.05085 -0.78385,-0.20952 -1.32824,-0.49499c-0.8001,-0.41968 -1.75694,-0.43658 -2.54062,0.01255c-0.78368,0.44913 -1.2473,1.27981 -1.28109,2.17726c-0.02301,0.61069 -0.08191,1.02941 -0.23221,1.38939c-0.32908,0.78851 -0.96038,1.41514 -1.755,1.74181c-0.59589,0.24492 -1.35141,0.24492 -2.86246,0.24492c-1.51105,0 -2.26657,0 -2.86246,-0.24492c-0.79463,-0.32667 -1.42594,-0.9533 -1.75507,-1.74181c-0.15025,-0.35998 -0.20905,-0.7787 -0.23206,-1.38923c-0.03383,-0.89762 -0.49758,-1.72829 -1.2813,-2.17742c-0.78372,-0.44897 -1.74052,-0.43223 -2.5406,-0.01255c-0.54436,0.28547 -0.93906,0.4443 -1.32831,0.49515c-0.85272,0.11136 -1.71511,-0.11796 -2.39745,-0.63757c-0.51176,-0.38959 -0.88952,-1.03907 -1.64503,-2.3377c-0.75549,-1.29863 -1.13325,-1.94811 -1.21745,-2.58278c-0.11226,-0.84628 0.11881,-1.70206 0.6424,-2.37922c0.239,-0.30913 0.57492,-0.56902 1.09627,-0.89424c0.76624,-0.47777 1.2593,-1.29171 1.25935,-2.18981c0.00005,-0.8981 -0.49303,-1.7122 -1.25935,-2.19014c-0.52127,-0.32506 -0.85713,-0.58479 -1.09611,-0.89392c-0.52359,-0.67722 -0.75467,-1.53309 -0.6424,-2.37936c0.08419,-0.63472 0.46194,-1.28405 1.21745,-2.58275c0.75551,-1.29868 1.13327,-1.94803 1.64503,-2.33775c0.68234,-0.51963 1.54473,-0.74896 2.39745,-0.63754c0.38927,0.05085 0.78399,0.20965 1.3284,0.49522c0.80002,0.41965 1.75676,0.43642 2.54043,-0.0126c0.78367,-0.44903 1.24741,-1.27972 1.28122,-2.17716c0.02301,-0.61068 0.08181,-1.02933 0.23206,-1.38933c0.32913,-0.78859 0.96044,-1.41514 1.75507,-1.74179c0.59589,-0.24499 1.35141,-0.24499 2.86246,-0.24499c1.51105,0 2.26657,0 2.86246,0.24499c0.79463,0.32665 1.42592,0.9532 1.755,1.74179zM186.71159,180.01876c0,-2.6663 2.17781,-4.82763 4.86438,-4.82763c2.68658,0 4.86432,2.16133 4.86432,4.82763c0,2.6663 -2.17775,4.82763 -4.86432,4.82763c-2.68658,0 -4.86438,-2.16133 -4.86438,-4.82763z" fill="#5c95ff" fill-rule="evenodd" stroke="none" stroke-width="1"/><path d="M123.5,257.5v-155h393v155z" fill="none" fill-rule="nonzero" stroke="none" stroke-width="none"/></g></g></svg>