<svg version="1.1" xmlns="http://www.w3.org/2000/svg" xmlns:xlink="http://www.w3.org/1999/xlink" width="393" height="155" viewBox="0,0,393,155"><defs><linearGradient x1="249.22587" y1="112.1076" x2="386.18647" y2="249.0682" gradientUnits="userSpaceOnUse" id="color-1"><stop offset="0" stop-color="#ff5ce7"/><stop offset="1" stop-color="#df5dff"/></linearGradient><linearGradient x1="260.86369" y1="149.15801" x2="260.86369" y2="188.26629" gradientTransform="translate(-267.334,-210.62734) scale(1.18002,1.18002)" gradientUnits="userSpaceOnUse" id="color-2"><stop offset="0" stop-color="#ffffff"/><stop offset="1" stop-color="#ffffff" stop-opacity="0.8"/></linearGradient><linearGradient x1="241.20064" y1="188.27047" x2="241.20064" y2="204.96274" gradientTransform="translate(-626.32918,-555.13099) scale(2.76465,2.76472)" gradientUnits="userSpaceOnUse" id="color-3"><stop offset="0" stop-color="#ffffff"/><stop offset="1" stop-color="#ffffff" stop-opacity="0.8"/></linearGradient></defs><g transform="translate(-123.5,-102.5)"><g stroke-miterlimit="10"><path d="M156.82437,180.11886c-0.38127,-25.39835 14.66658,-30.95684 28.14259,-30.95684c25.45959,0 168.98262,0 212.94559,0c15.36416,0 30.95685,4.01553 31.89493,29.08068c1.00171,26.76514 -16.13727,33.77111 -30.95685,33.77111c-42.84791,0 -184.92188,0 -211.06942,0c-14.58944,0 -30.57292,-6.31893 -30.95685,-31.89494z" fill="url(#color-1)" fill-rule="nonzero" stroke="none" stroke-width="0"/><text transform="translate(226.54953,178.49403) scale(0.84744,0.84744)" font-size="40" xml:space="preserve" fill="#ffffff" fill-rule="nonzero" stroke="url(#color-2)" stroke-width="1" font-family="&quot;Torus&quot;, Handwriting" font-weight="normal" text-anchor="start"><tspan x="0" dy="0">play</tspan></text><text transform="translate(226.54953,200.79088) scale(0.36171,0.3617)" font-size="40" xml:space="preserve" fill="#ffffff" fill-rule="nonzero" stroke="url(#color-3)" stroke-width="0" font-family="&quot;Torus&quot;, Handwriting" font-weight="normal" text-anchor="start"><tspan x="0" dy="0">enjoy some clicking action</tspan></text><path d="M167.72358,180.60666c0,-13.72941 11.12988,-24.85929 24.85929,-24.85929c13.72941,0 24.85929,11.12988 24.85929,24.85929c0,13.72941 -11.12988,24.85929 -24.85929,24.85929c-13.72941,0 -24.85929,-11.12988 -24.85929,-24.85929z" fill="#ffffff" fill-rule="nonzero" stroke="none" stroke-width="0"/><path d="M201.99677,184.6115l-13.32039,9.00501c-3.24578,2.19465 -7.64201,-0.11089 -7.64201,-4.00351v-18.01233c0,-3.89493 4.39624,-6.19816 7.64201,-4.00351l13.32039,9.00501c2.84612,1.92436 2.84612,6.08496 0,8.00933" fill="#ff5ce7" fill-rule="evenodd" stroke="none" stroke-width="1"/><path d="M123.5,257.5v-155h393v155z" fill="none" fill-rule="nonzero" stroke="none" stroke-width="none"/></g></g></svg>