<svg version="1.1" xmlns="http://www.w3.org/2000/svg" xmlns:xlink="http://www.w3.org/1999/xlink" width="360.07696" height="360.11545" viewBox="0,0,360.07696,360.11545"><defs><linearGradient x1="319.99996" y1="-0.07696" x2="319.99996" y2="359.99999" gradientUnits="userSpaceOnUse" id="color-1"><stop offset="0" stop-color="#5a2f75"/><stop offset="1" stop-color="#000000"/></linearGradient><linearGradient x1="366.85723" y1="35.57066" x2="366.85723" y2="323.4882" gradientUnits="userSpaceOnUse" id="color-2"><stop offset="0" stop-color="#c764fa"/><stop offset="1" stop-color="#8a35b5"/></linearGradient><radialGradient cx="364.34116" cy="206.32144" r="20.5" gradientUnits="userSpaceOnUse" id="color-3"><stop offset="0" stop-color="#dab5ff" stop-opacity="0.09804"/><stop offset="1" stop-color="#dab5ff" stop-opacity="0"/></radialGradient><radialGradient cx="383.93561" cy="211.32144" r="20.5" gradientUnits="userSpaceOnUse" id="color-4"><stop offset="0" stop-color="#dab5ff" stop-opacity="0.09804"/><stop offset="1" stop-color="#dab5ff" stop-opacity="0"/></radialGradient><radialGradient cx="400.50553" cy="190.82144" r="20.5" gradientUnits="userSpaceOnUse" id="color-5"><stop offset="0" stop-color="#dab5ff" stop-opacity="0.09804"/><stop offset="1" stop-color="#dab5ff" stop-opacity="0"/></radialGradient><radialGradient cx="389.58887" cy="180.10716" r="20.5" gradientUnits="userSpaceOnUse" id="color-6"><stop offset="0" stop-color="#dab5ff" stop-opacity="0.09804"/><stop offset="1" stop-color="#dab5ff" stop-opacity="0"/></radialGradient><radialGradient cx="373.87539" cy="153.67859" r="20.5" gradientUnits="userSpaceOnUse" id="color-7"><stop offset="0" stop-color="#dab5ff" stop-opacity="0.09804"/><stop offset="1" stop-color="#dab5ff" stop-opacity="0"/></radialGradient><radialGradient cx="395.28095" cy="148.67859" r="20.5" gradientUnits="userSpaceOnUse" id="color-8"><stop offset="0" stop-color="#dab5ff" stop-opacity="0.09804"/><stop offset="1" stop-color="#dab5ff" stop-opacity="0"/></radialGradient><radialGradient cx="404.4253" cy="169.17859" r="20.5" gradientUnits="userSpaceOnUse" id="color-9"><stop offset="0" stop-color="#dab5ff" stop-opacity="0.09804"/><stop offset="1" stop-color="#dab5ff" stop-opacity="0"/></radialGradient><radialGradient cx="389.62768" cy="179.89287" r="20.5" gradientUnits="userSpaceOnUse" id="color-10"><stop offset="0" stop-color="#dab5ff" stop-opacity="0.09804"/><stop offset="1" stop-color="#dab5ff" stop-opacity="0"/></radialGradient><radialGradient cx="427.19235" cy="148.90016" r="20.5" gradientUnits="userSpaceOnUse" id="color-11"><stop offset="0" stop-color="#dab5ff" stop-opacity="0.09804"/><stop offset="1" stop-color="#dab5ff" stop-opacity="0"/></radialGradient><radialGradient cx="447.69235" cy="148.90016" r="20.5" gradientUnits="userSpaceOnUse" id="color-12"><stop offset="0" stop-color="#dab5ff" stop-opacity="0.09804"/><stop offset="1" stop-color="#dab5ff" stop-opacity="0"/></radialGradient><radialGradient cx="466.63996" cy="157.47159" r="20.5" gradientUnits="userSpaceOnUse" id="color-13"><stop offset="0" stop-color="#dab5ff" stop-opacity="0.09804"/><stop offset="1" stop-color="#dab5ff" stop-opacity="0"/></radialGradient><radialGradient cx="470.78433" cy="177.97159" r="20.5" gradientUnits="userSpaceOnUse" id="color-14"><stop offset="0" stop-color="#dab5ff" stop-opacity="0.09804"/><stop offset="1" stop-color="#dab5ff" stop-opacity="0"/></radialGradient><radialGradient cx="460.76678" cy="189.90016" r="20.5" gradientUnits="userSpaceOnUse" id="color-15"><stop offset="0" stop-color="#dab5ff" stop-opacity="0.09804"/><stop offset="1" stop-color="#dab5ff" stop-opacity="0"/></radialGradient><radialGradient cx="444.63106" cy="209.18588" r="20.5" gradientUnits="userSpaceOnUse" id="color-16"><stop offset="0" stop-color="#dab5ff" stop-opacity="0.09804"/><stop offset="1" stop-color="#dab5ff" stop-opacity="0"/></radialGradient><radialGradient cx="424.13106" cy="209.18588" r="20.5" gradientUnits="userSpaceOnUse" id="color-17"><stop offset="0" stop-color="#dab5ff" stop-opacity="0.09804"/><stop offset="1" stop-color="#dab5ff" stop-opacity="0"/></radialGradient><radialGradient cx="423.47956" cy="169.40016" r="20.5" gradientUnits="userSpaceOnUse" id="color-18"><stop offset="0" stop-color="#dab5ff" stop-opacity="0.09804"/><stop offset="1" stop-color="#dab5ff" stop-opacity="0"/></radialGradient><radialGradient cx="419.97376" cy="188.75731" r="20.5" gradientUnits="userSpaceOnUse" id="color-19"><stop offset="0" stop-color="#dab5ff" stop-opacity="0.09804"/><stop offset="1" stop-color="#dab5ff" stop-opacity="0"/></radialGradient><radialGradient cx="416.26097" cy="209.25731" r="20.5" gradientUnits="userSpaceOnUse" id="color-20"><stop offset="0" stop-color="#dab5ff" stop-opacity="0.09804"/><stop offset="1" stop-color="#dab5ff" stop-opacity="0"/></radialGradient></defs><g transform="translate(-139.96152,0.07696)"><g stroke-miterlimit="10"><path d="M139.96153,179.96152c0,-99.4325 80.60597,-180.03848 180.03848,-180.03848c99.43251,0 180.03848,80.60598 180.03848,180.03848c0,99.43251 -80.60597,180.03847 -180.03847,180.03847c-99.4325,0 -180.03848,-80.60597 -180.03848,-180.03847z" fill="url(#color-1)" fill-rule="nonzero" stroke="none" stroke-width="1"/><path d="M351.15784,162.68902h-14.86598l8.8687,15.36089l64.0697,-110.97131l59.83598,103.63935l14.0446,-24.326l3.59659,96.69667l-14.85569,30.4217h-62.13258l8.15454,-14.12461h-72.21743l37.00951,64.1025h-146.78377l16.93682,-29.33507c0,0 -34.83644,0 -54.71465,0c-23.80636,0 -47.31231,-53.97633 -38.71363,-68.86963c4.12842,-7.15061 9.16586,-15.87568 9.16586,-15.87568c0,0 -18.27464,0 -24.48466,0c-3.81332,0 -1.83867,-12.80626 4.2619,-23.37274c12.85289,-22.26182 59.89765,-103.74562 59.89765,-103.74562l21.28095,36.85948l48.25391,-83.57826zM463.0654,259.3857l-21.55661,-37.33638l16.08064,-27.85236h25.03255l-12.51628,-21.67863l13.00518,-22.52561l9.06451,45.46498l-24.87269,47.63091h17.32432l-15.89191,28.62132h-55.89765l7.11512,-12.32423zM420.99199,257.58531h38.95473l-19.47736,-33.73561zM423.3497,194.19696h-67.35239l-0.75696,1.31148l23.07933,39.97494h-46.15906l-0.15243,0.26365l12.6087,21.83827h74.29628l20.51679,-35.536zM425.42855,194.19696h30.08203l-15.04121,26.05197zM389.67331,132.26773l-34.71542,60.12885h-1.51432l-7.24355,-12.54628l63.03028,-109.17093l58.79656,101.83897l-11.47685,19.87825h-32.16087zM389.67331,135.8685l32.63698,56.52808h-65.27355zM331.12117,233.683h-0.30446l-21.5426,-37.31317l-21.5426,37.31318h-53.07695l14.0154,-24.27519h32.95304l-16.47672,-28.5385l10.49665,-18.18029h58.57011l9.90812,17.16127l-8.28297,14.34667h16.56594l0.75736,1.31148zM354.20091,197.30883l21.00049,36.37417h-42.00137zM316.28157,259.3857h27.29583l35.97009,62.30211h-140.54724l15.8974,-27.53468h11.51446l-5.75723,-9.97173l28.11601,-48.69801h41.00596l0.15244,0.26365zM319.39986,257.58531l11.56887,-20.03789l11.56928,20.03789zM338.95683,192.39658l6.20372,-10.7459l6.20413,10.7459zM479.50371,192.39658l-10.43743,-18.07786l-10.43743,18.07786zM153.07716,206.70689c5.38441,0 16.51869,0 16.51869,0l23.4246,-40.57267l23.42421,40.57267h31.18546l15.4373,-26.73811l-10.49625,-18.18029h-48.1971l24.09835,-41.73972l-20.24113,-35.05909c0,0 -47.93333,83.02283 -59.71728,103.4332c-4.95446,8.58137 -0.58818,18.28401 4.56314,18.28401zM251.53179,160.88864h-44.03941l22.01991,-38.13895zM277.76617,39.17143l70.27342,121.71721h-12.78713l-30.32449,-52.52363l-30.32448,52.52363h-20.99288l-23.05893,-39.93934zM273.56408,162.68902h-18.91405l9.45682,16.37991zM276.68235,160.88864h56.49128l-28.24564,-48.92286zM215.40525,209.40781l43.17083,74.77358l-4.71781,8.17135c0,0 -64.36157,0 -66.56056,0c-13.17713,0 -35.25215,-50.74667 -26.67762,-65.59816c4.40935,-7.63719 10.01519,-17.34677 10.01519,-17.34677zM193.02047,170.63553l-21.34576,36.9719h42.69113zM246.59072,209.40781l-14.55311,25.20699l-14.55351,-25.20699zM278.50471,207.60743h-28.79535l14.39747,-24.93773zM286.69167,235.48339h-54.15277l27.07658,46.89762zM263.29389,292.35274h-7.35677l3.67838,-6.37097zM328.73744,233.683l-19.46336,-33.7124l-19.46376,33.7124zM483.59081,241.28823h-13.16984l23.69439,-53.03555z" fill="url(#color-2)" fill-rule="evenodd" stroke="none" stroke-width="1"/><path d="M142.6464,168.3291c49.71454,36.59605 111.13055,58.21961 177.59697,58.21961c66.63561,0 128.19513,-21.73376 177.97643,-58.49937l1.36546,-0.96176c0.30044,4.25225 0.45322,8.54523 0.45322,12.87394c0,99.43253 -80.60617,180.03848 -180.03848,180.03848c-99.43253,0 -180.03848,-80.60617 -180.03848,-180.03848v0c0,-4.28651 0.14979,-8.53807 0.44444,-12.74964z" fill-opacity="0.07451" fill="#000000" fill-rule="nonzero" stroke="#000000" stroke-width="0"/><g fill-rule="nonzero" stroke="none" stroke-width="0"><path d="M343.84116,206.32144c2.05051,-11.32183 12.89095,-20.5 24.21279,-20.5c11.32184,0 18.83773,9.17817 16.78721,20.5c-2.05051,11.32183 -12.89095,20.5 -24.21279,20.5c-11.32184,0 -18.83773,-9.17817 -16.78721,-20.5z" fill="url(#color-3)"/><path d="M363.43561,211.32144c2.05051,-11.32183 12.89095,-20.5 24.21279,-20.5c11.32184,0 18.83773,9.17817 16.78721,20.5c-2.05051,11.32183 -12.89095,20.5 -24.21279,20.5c-11.32184,0 -18.83773,-9.17817 -16.78721,-20.5z" fill="url(#color-4)"/><path d="M380.00553,190.82144c2.05051,-11.32183 12.89095,-20.5 24.21279,-20.5c11.32184,0 18.83773,9.17817 16.78721,20.5c-2.05051,11.32183 -12.89095,20.5 -24.21279,20.5c-11.32184,0 -18.83773,-9.17817 -16.78721,-20.5z" fill="url(#color-5)"/><path d="M369.08887,180.10716c2.05051,-11.32183 12.89095,-20.5 24.21279,-20.5c11.32184,0 18.83773,9.17817 16.78721,20.5c-2.05051,11.32183 -12.89095,20.5 -24.21279,20.5c-11.32184,0 -18.83773,-9.17817 -16.78721,-20.5z" fill="url(#color-6)"/><path d="M377.58817,133.17859c11.32184,0 18.83773,9.17817 16.78721,20.5c-2.05051,11.32183 -12.89095,20.5 -24.21279,20.5c-11.32184,0 -18.83773,-9.17817 -16.78721,-20.5c2.05051,-11.32183 12.89095,-20.5 24.21279,-20.5z" fill="url(#color-7)"/><path d="M398.99373,128.17859c11.32184,0 18.83773,9.17817 16.78721,20.5c-2.05051,11.32183 -12.89095,20.5 -24.21279,20.5c-11.32184,0 -18.83773,-9.17817 -16.78721,-20.5c2.05051,-11.32183 12.89095,-20.5 24.21279,-20.5z" fill="url(#color-8)"/><path d="M408.13809,148.67859c11.32184,0 18.83773,9.17817 16.78721,20.5c-2.05051,11.32183 -12.89095,20.5 -24.21279,20.5c-11.32184,0 -18.83773,-9.17817 -16.78721,-20.5c2.05051,-11.32183 12.89095,-20.5 24.21279,-20.5z" fill="url(#color-9)"/><path d="M393.34047,159.39287c11.32184,0 18.83773,9.17817 16.78721,20.5c-2.05051,11.32183 -12.89095,20.5 -24.21279,20.5c-11.32184,0 -18.83773,-9.17817 -16.78721,-20.5c2.05051,-11.32183 12.89095,-20.5 24.21279,-20.5z" fill="url(#color-10)"/></g><g fill-rule="nonzero" stroke="none" stroke-width="0"><path d="M430.90513,128.40016c11.32184,0 18.83773,9.17817 16.78721,20.5c-2.05051,11.32183 -12.89095,20.5 -24.21279,20.5c-11.32184,0 -18.83773,-9.17817 -16.78721,-20.5c2.05051,-11.32183 12.89095,-20.5 24.21279,-20.5z" fill="url(#color-11)"/><path d="M451.40513,128.40016c11.32184,0 18.83773,9.17817 16.78721,20.5c-2.05051,11.32183 -12.89095,20.5 -24.21279,20.5c-11.32184,0 -18.83773,-9.17817 -16.78721,-20.5c2.05051,-11.32183 12.89095,-20.5 24.21279,-20.5z" fill="url(#color-12)"/><path d="M470.35275,136.97159c11.32184,0 18.83773,9.17817 16.78721,20.5c-2.05051,11.32183 -12.89095,20.5 -24.21279,20.5c-11.32184,0 -18.83773,-9.17817 -16.78721,-20.5c2.05051,-11.32183 12.89095,-20.5 24.21279,-20.5z" fill="url(#color-13)"/><path d="M474.49711,157.47159c11.32184,0 18.83773,9.17817 16.78721,20.5c-2.05051,11.32183 -12.89095,20.5 -24.21279,20.5c-11.32184,0 -18.83773,-9.17817 -16.78721,-20.5c2.05051,-11.32183 12.89095,-20.5 24.21279,-20.5z" fill="url(#color-14)"/><path d="M464.47956,169.40016c11.32184,0 18.83773,9.17817 16.78721,20.5c-2.05051,11.32183 -12.89095,20.5 -24.21279,20.5c-11.32184,0 -18.83773,-9.17817 -16.78721,-20.5c2.05051,-11.32183 12.89095,-20.5 24.21279,-20.5z" fill="url(#color-15)"/><path d="M448.34385,188.68588c11.32184,0 18.83773,9.17817 16.78721,20.5c-2.05051,11.32183 -12.89095,20.5 -24.21279,20.5c-11.32184,0 -18.83773,-9.17817 -16.78721,-20.5c2.05051,-11.32183 12.89095,-20.5 24.21279,-20.5z" fill="url(#color-16)"/><path d="M427.84385,188.68588c11.32184,0 18.83773,9.17817 16.78721,20.5c-2.05051,11.32183 -12.89095,20.5 -24.21279,20.5c-11.32184,0 -18.83773,-9.17817 -16.78721,-20.5c2.05051,-11.32183 12.89095,-20.5 24.21279,-20.5z" fill="url(#color-17)"/><path d="M427.19235,148.90016c11.32184,0 18.83773,9.17817 16.78721,20.5c-2.05051,11.32183 -12.89095,20.5 -24.21279,20.5c-11.32184,0 -18.83773,-9.17817 -16.78721,-20.5c2.05051,-11.32183 12.89095,-20.5 24.21279,-20.5z" fill="url(#color-18)"/><path d="M423.68654,168.25731c11.32184,0 18.83773,9.17817 16.78721,20.5c-2.05051,11.32183 -12.89095,20.5 -24.21279,20.5c-11.32184,0 -18.83773,-9.17817 -16.78721,-20.5c2.05051,-11.32183 12.89095,-20.5 24.21279,-20.5z" fill="url(#color-19)"/><path d="M419.97376,188.75731c11.32184,0 18.83773,9.17817 16.78721,20.5c-2.05051,11.32183 -12.89095,20.5 -24.21279,20.5c-11.32184,0 -18.83773,-9.17817 -16.78721,-20.5c2.05051,-11.32183 12.89095,-20.5 24.21279,-20.5z" fill="url(#color-20)"/></g><path d="M500.03849,180.00001c0,99.43245 -80.60603,180.03848 -180.03848,180.03848c-99.43245,0 -180.03848,-80.60602 -180.03848,-180.03847c0,-99.43245 80.60603,-180.03848 180.03848,-180.03848c99.43245,0 180.03848,80.60603 180.03848,180.03848zM157.96538,180.90055c0,89.48912 72.5455,162.03463 162.03463,162.03463c89.48913,0 162.03463,-72.54551 162.03463,-162.03463c0,-89.48912 -72.5455,-162.03463 -162.03463,-162.03463c-89.48912,0 -162.03463,72.54551 -162.03463,162.03463z" fill="#ffffff" fill-rule="nonzero" stroke="none" stroke-width="1"/><path d="M343.50392,143.86789c3.78064,0 6.37323,2.80846 6.37323,6.6972v35.97015c0,3.88872 -2.59259,6.69719 -6.37323,6.69719c-3.88843,0 -6.37293,-2.80846 -6.37293,-6.69719v-35.97015c0,-3.88872 2.4845,-6.6972 6.37293,-6.6972zM343.50392,216.13215c-4.64474,0 -8.3173,-3.67255 -8.3173,-8.3173c0,-4.53666 3.67256,-8.20951 8.3173,-8.20951c4.64503,0 8.31759,3.67285 8.31759,8.20951c0,4.64474 -3.67256,8.3173 -8.31759,8.3173z" fill="#ffffff" fill-rule="nonzero" stroke="none" stroke-width="1"/><path d="M320.22603,161.25878c3.88873,0 6.37323,2.80846 6.37323,6.5891v23.87221c0,17.60707 -10.85539,24.41205 -24.0339,24.41205c-13.28629,0 -24.14169,-6.80498 -24.14169,-24.41205v-23.87221c0,-3.78064 2.4845,-6.5891 6.37323,-6.5891c3.78064,0 6.37293,2.80846 6.37293,6.5891v23.00812c0,9.61344 4.05042,13.39409 11.39553,13.39409c7.23733,0 11.28774,-3.78065 11.28774,-13.39409v-23.00812c0,-3.78064 2.59228,-6.5891 6.37293,-6.5891z" fill="#ffffff" fill-rule="nonzero" stroke="none" stroke-width="1"/><path d="M242.2823,175.84152c0,3.56447 3.67256,4.86091 10.69401,6.48102c9.72152,2.37641 19.0113,4.86091 19.0113,16.85106c0,11.66589 -8.64156,16.95885 -21.06375,16.95885c-10.26166,0 -17.71515,-3.56477 -21.17154,-7.66937c-2.70067,-3.24051 -2.37642,-6.04897 0.21587,-8.53347c3.24051,-3.13242 6.04897,-1.83628 7.88554,-0.21617c2.91624,2.70067 6.48102,5.50914 13.39409,5.50914c5.18487,0 8.42568,-1.72849 8.42568,-5.18487c0,-3.45669 -3.45668,-4.64474 -12.53028,-7.12924c-8.96552,-2.4845 -16.95885,-4.86091 -16.95885,-15.55462c0,-11.99016 9.72152,-16.95915 20.52332,-16.95915c6.15706,0 13.1785,1.62041 17.49928,6.26514c1.83628,1.83627 3.24051,4.42886 0,7.99334c-3.24081,3.34859 -5.61722,2.37641 -7.88554,0.64822c-2.05215,-1.51232 -5.61692,-4.1046 -11.01796,-4.1046c-3.67256,0 -7.02115,1.18805 -7.02115,4.64474z" fill="#ffffff" fill-rule="nonzero" stroke="none" stroke-width="1"/><path d="M195.12179,216.13245c-15.57457,0 -26.7432,-11.92047 -26.7432,-27.95895c0,-16.14686 11.16864,-27.95895 26.7432,-27.95895c15.57487,0 26.7435,11.8121 26.7435,27.95895c0,16.03848 -11.16863,27.95895 -26.7435,27.95895zM195.12179,204.21198c9.01703,0 14.65271,-6.93569 14.65271,-16.03847c0,-9.10308 -5.63568,-16.14686 -14.65271,-16.14686c-9.01673,0 -14.65241,7.04379 -14.65241,16.14686c0,9.10279 5.63568,16.03847 14.65241,16.03847z" fill="#ffffff" fill-rule="nonzero" stroke="none" stroke-width="1"/><path d="M406.972,195.0683c-2.36735,13.07123 -13.9677,21.06385 -28.87507,21.06385c-9.07271,0 -16.39224,-3.13225 -19.50828,-7.99263c-1.9169,-3.13225 -1.42747,-5.83466 2.01692,-8.75089c3.06168,-2.5922 5.78145,-2.70021 8.42686,0c2.97743,3.24025 5.05979,4.86258 10.89225,4.86258c8.31665,0 13.22644,-3.24246 14.40013,-9.72296c1.05633,-5.83246 -1.93131,-9.61275 -9.81813,-9.61275h-1.62013c-3.56428,0 -5.61811,-2.37619 -4.97218,-5.94267c0.64553,-3.56428 3.52095,-5.72445 7.08523,-5.72445h0.75606c5.29241,0 10.46714,-2.91623 11.50391,-8.64068c0.70422,-3.8883 -1.42199,-8.8589 -7.9025,-8.8589c-5.72445,0 -8.85457,3.56648 -11.12108,5.94267c-2.96304,3.24025 -5.81038,3.45627 -8.46515,1.40411c-2.76058,-2.05216 -3.11604,-4.86038 -0.27082,-8.64288c4.02188,-5.50843 12.39605,-10.58483 22.11681,-10.58483c13.61127,0 20.30515,10.15279 18.6029,19.55173c-0.91939,5.0764 -4.23454,10.2608 -8.82706,14.14911c4.49936,3.7825 7.0073,9.61496 5.57931,17.49957z" fill="#dab5ff" fill-rule="nonzero" stroke="none" stroke-width="1"/><path d="M473.78158,179.08084c-3.89315,21.49589 -19.25264,35.32317 -38.91238,35.32317h-18.79347c-3.99852,0 -5.95455,-2.91623 -5.25033,-6.80453l10.31015,-56.92707c0.70422,-3.8883 3.71657,-6.80453 7.71509,-6.80453h18.68546c19.65974,0 30.1578,13.61127 26.24549,35.21296zM460.81836,179.08084c2.40607,-13.28504 -1.77385,-23.0058 -15.49313,-23.0058h-12.31296l-8.35319,46.12181h12.42097c13.71928,0 21.3514,-9.93678 23.73831,-23.11601z" fill="#dab5ff" fill-rule="nonzero" stroke="none" stroke-width="1"/></g></g></svg>