<svg version="1.1" xmlns="http://www.w3.org/2000/svg" xmlns:xlink="http://www.w3.org/1999/xlink" width="360.07696" height="360.1539" viewBox="0,0,360.07696,360.1539"><defs><linearGradient x1="319.99999" y1="0.07695" x2="319.99999" y2="360.1539" gradientUnits="userSpaceOnUse" id="color-1"><stop offset="0" stop-color="#ff66ab"/><stop offset="1" stop-color="#000000"/></linearGradient><linearGradient x1="366.85721" y1="35.72457" x2="366.85721" y2="323.64211" gradientUnits="userSpaceOnUse" id="color-2"><stop offset="0" stop-color="#f964a7"/><stop offset="1" stop-color="#b6346f"/></linearGradient></defs><g transform="translate(-139.96152,0)"><g stroke="none" stroke-miterlimit="10"><path d="M139.96152,180.11543c0,-99.4325 80.60597,-180.03848 180.03848,-180.03848c99.43251,0 180.03848,80.60598 180.03848,180.03848c0,99.43251 -80.60597,180.03847 -180.03847,180.03847c-99.4325,0 -180.03848,-80.60597 -180.03848,-180.03847z" fill="url(#color-1)" fill-rule="nonzero"/><path d="M351.15786,162.84293h-14.86598l8.8687,15.36089l64.0697,-110.97131l59.83598,103.63935l14.0446,-24.326l3.59659,96.69667l-14.85569,30.4217h-62.13258l8.15454,-14.12461h-72.21743l37.00951,64.1025h-146.78377l16.93682,-29.33507c0,0 -34.83644,0 -54.71465,0c-23.80636,0 -47.31231,-53.97633 -38.71363,-68.86963c4.12842,-7.15061 9.16586,-15.87568 9.16586,-15.87568c0,0 -18.27464,0 -24.48466,0c-3.81332,0 -1.83867,-12.80626 4.2619,-23.37274c12.85289,-22.26182 59.89765,-103.74562 59.89765,-103.74562l21.28095,36.85948l48.25391,-83.57826zM463.06538,259.53961l-21.55661,-37.33638l16.08064,-27.85236h25.03255l-12.51628,-21.67863l13.00518,-22.52561l9.06451,45.46498l-24.87269,47.63091h17.32432l-15.89191,28.62132h-55.89765l7.11512,-12.32423zM420.99198,257.73922h38.95473l-19.47736,-33.73561zM423.34969,194.35087h-67.35239l-0.75696,1.31148l23.07933,39.97494h-46.15906l-0.15243,0.26365l12.6087,21.83827h74.29628l20.51679,-35.536zM425.42853,194.35087h30.08203l-15.04121,26.05197zM389.67329,132.42164l-34.71542,60.12885h-1.51432l-7.24355,-12.54628l63.03028,-109.17093l58.79656,101.83897l-11.47685,19.87825h-32.16087zM389.67329,136.02241l32.63698,56.52808h-65.27355zM331.12116,233.83691h-0.30446l-21.5426,-37.31317l-21.5426,37.31318h-53.07695l14.0154,-24.27519h32.95304l-16.47672,-28.5385l10.49665,-18.18029h58.57011l9.90812,17.16127l-8.28297,14.34667h16.56594l0.75736,1.31148zM354.20091,197.46274l21.00049,36.37417h-42.00137zM316.2816,259.53961h27.29583l35.97009,62.30211h-140.54724l15.8974,-27.53468h11.51446l-5.75723,-9.97173l28.11601,-48.69801h41.00596l0.15244,0.26365zM319.39986,257.73922l11.56887,-20.03789l11.56928,20.03789zM338.95685,192.55049l6.20372,-10.7459l6.20413,10.7459zM479.50369,192.55049l-10.43743,-18.07786l-10.43743,18.07786zM153.07715,206.8608c5.38441,0 16.51869,0 16.51869,0l23.4246,-40.57267l23.42421,40.57267h31.18546l15.4373,-26.73811l-10.49625,-18.18029h-48.1971l24.09835,-41.73972l-20.24113,-35.05909c0,0 -47.93333,83.02283 -59.71728,103.4332c-4.95446,8.58137 -0.58818,18.28401 4.56314,18.28401zM251.53177,161.04255h-44.03941l22.01991,-38.13895zM277.76617,39.32534l70.27342,121.71721h-12.78713l-30.32449,-52.52363l-30.32448,52.52363h-20.99288l-23.05893,-39.93934zM273.56408,162.84293h-18.91405l9.45682,16.37991zM276.68234,161.04255h56.49128l-28.24564,-48.92286zM215.40525,209.56172l43.17083,74.77358l-4.71781,8.17135c0,0 -64.36157,0 -66.56056,0c-13.17713,0 -35.25215,-50.74667 -26.67762,-65.59816c4.40935,-7.63719 10.01519,-17.34677 10.01519,-17.34677zM193.02046,170.78944l-21.34576,36.9719h42.69113zM246.59071,209.56172l-14.55311,25.20699l-14.55351,-25.20699zM278.50473,207.76134h-28.79535l14.39747,-24.93773zM286.69168,235.6373h-54.15277l27.07658,46.89762zM263.29388,292.50665h-7.35677l3.67838,-6.37097zM328.73747,233.83691l-19.46336,-33.7124l-19.46376,33.7124zM483.59079,241.44214h-13.16984l23.69439,-53.03555z" fill="url(#color-2)" fill-rule="evenodd"/><path d="M432.08196,126.92747c5.07988,0 8.56343,3.77361 8.56343,8.99873v48.33153c0,5.22511 -3.48355,8.99872 -8.56343,8.99872c-5.22472,0 -8.56303,-3.77361 -8.56303,-8.99872v-48.33153c0,-5.22511 3.33831,-8.99873 8.56303,-8.99873zM432.08196,224.02582c-6.24093,0 -11.17559,-4.93465 -11.17559,-11.17559c0,-6.09571 4.93466,-11.03076 11.17559,-11.03076c6.24133,0 11.17599,4.93505 11.17599,11.03076c0,6.24094 -4.93466,11.17559 -11.17599,11.17559z" fill="#ffffff" fill-rule="nonzero"/><path d="M400.80448,150.29486c5.22512,0 8.56343,3.77361 8.56343,8.85349v32.07605c0,23.65786 -14.58591,32.80141 -32.2933,32.80141c-17.85221,0 -32.43814,-9.14355 -32.43814,-32.80141v-32.07605c0,-5.07988 3.33832,-8.85349 8.56343,-8.85349c5.07988,0 8.56303,3.77361 8.56303,8.85349v30.91501c0,12.91716 5.44237,17.99705 15.31168,17.99705c9.72448,0 15.16684,-5.07989 15.16684,-17.99705v-30.91501c0,-5.07988 3.48314,-8.85349 8.56303,-8.85349z" fill="#ffffff" fill-rule="nonzero"/><path d="M296.07488,169.88905c0,4.78942 4.93466,6.5314 14.36908,8.70827c13.06239,3.19308 25.54466,6.53139 25.54466,22.64203c0,15.67495 -11.61129,22.78687 -28.30245,22.78687c-13.78814,0 -23.80308,-4.78982 -28.44728,-10.305c-3.62877,-4.35413 -3.19309,-8.12774 0.29006,-11.46605c4.35413,-4.2089 8.12774,-2.46733 10.59546,-0.29046c3.91843,3.62877 8.70826,7.40239 17.99705,7.40239c6.96669,0 11.32122,-2.3225 11.32122,-6.96669c0,-4.6446 -4.64459,-6.24093 -16.83639,-9.57925c-12.04658,-3.33831 -22.78687,-6.5314 -22.78687,-20.90007c0,-16.11065 13.06239,-22.78727 27.57629,-22.78727c8.27297,0 17.70738,2.17727 23.51302,8.4182c2.46733,2.46732 4.35413,5.95087 0,10.7403c-4.35453,4.49936 -7.54761,3.19308 -10.59546,0.87098c-2.75739,-2.03204 -7.54721,-5.51517 -14.80436,-5.51517c-4.93466,0 -9.43402,1.59633 -9.43402,6.24093z" fill="#ffffff" fill-rule="nonzero"/><path d="M232.70735,224.02622c-20.92687,0 -35.93368,-16.01702 -35.93368,-37.56722c0,-21.69583 15.00681,-37.56723 35.93368,-37.56723c20.92728,0 35.93408,15.8714 35.93408,37.56723c0,21.55021 -15.0068,37.56722 -35.93408,37.56722zM232.70735,208.0092c12.11579,0 19.68821,-9.31919 19.68821,-21.5502c0,-12.23141 -7.57242,-21.69584 -19.68821,-21.69584c-12.11539,0 -19.68781,9.46443 -19.68781,21.69584c0,12.23102 7.57242,21.5502 19.68781,21.5502z" fill="#ffffff" fill-rule="nonzero"/><path d="M500.03848,180.03847c0,99.43245 -80.60603,180.03848 -180.03848,180.03848c-99.43245,0 -180.03848,-80.60602 -180.03848,-180.03847c0,-99.43245 80.60603,-180.03848 180.03848,-180.03848c99.43245,0 180.03848,80.60603 180.03848,180.03848zM157.96537,180.93901c0,89.48912 72.5455,162.03463 162.03463,162.03463c89.48913,0 162.03463,-72.54551 162.03463,-162.03463c0,-89.48912 -72.5455,-162.03463 -162.03463,-162.03463c-89.48912,0 -162.03463,72.54551 -162.03463,162.03463z" fill="#ffffff" fill-rule="nonzero"/></g></g></svg>