<svg version="1.1" xmlns="http://www.w3.org/2000/svg" xmlns:xlink="http://www.w3.org/1999/xlink" width="361.07696" height="361.07695" viewBox="0,0,361.07696,361.07695"><defs><radialGradient cx="364.34115" cy="206.32144" r="20.5" gradientUnits="userSpaceOnUse" id="color-1"><stop offset="0" stop-color="#dab5ff" stop-opacity="0.09804"/><stop offset="1" stop-color="#dab5ff" stop-opacity="0"/></radialGradient><radialGradient cx="383.9356" cy="211.32144" r="20.5" gradientUnits="userSpaceOnUse" id="color-2"><stop offset="0" stop-color="#dab5ff" stop-opacity="0.09804"/><stop offset="1" stop-color="#dab5ff" stop-opacity="0"/></radialGradient><radialGradient cx="400.50552" cy="190.82144" r="20.5" gradientUnits="userSpaceOnUse" id="color-3"><stop offset="0" stop-color="#dab5ff" stop-opacity="0.09804"/><stop offset="1" stop-color="#dab5ff" stop-opacity="0"/></radialGradient><radialGradient cx="389.58886" cy="180.10716" r="20.5" gradientUnits="userSpaceOnUse" id="color-4"><stop offset="0" stop-color="#dab5ff" stop-opacity="0.09804"/><stop offset="1" stop-color="#dab5ff" stop-opacity="0"/></radialGradient><radialGradient cx="373.87538" cy="153.67859" r="20.5" gradientUnits="userSpaceOnUse" id="color-5"><stop offset="0" stop-color="#dab5ff" stop-opacity="0.09804"/><stop offset="1" stop-color="#dab5ff" stop-opacity="0"/></radialGradient><radialGradient cx="395.28094" cy="148.67859" r="20.5" gradientUnits="userSpaceOnUse" id="color-6"><stop offset="0" stop-color="#dab5ff" stop-opacity="0.09804"/><stop offset="1" stop-color="#dab5ff" stop-opacity="0"/></radialGradient><radialGradient cx="404.42529" cy="169.17859" r="20.5" gradientUnits="userSpaceOnUse" id="color-7"><stop offset="0" stop-color="#dab5ff" stop-opacity="0.09804"/><stop offset="1" stop-color="#dab5ff" stop-opacity="0"/></radialGradient><radialGradient cx="389.62767" cy="179.89287" r="20.5" gradientUnits="userSpaceOnUse" id="color-8"><stop offset="0" stop-color="#dab5ff" stop-opacity="0.09804"/><stop offset="1" stop-color="#dab5ff" stop-opacity="0"/></radialGradient><radialGradient cx="427.19234" cy="148.90016" r="20.5" gradientUnits="userSpaceOnUse" id="color-9"><stop offset="0" stop-color="#dab5ff" stop-opacity="0.09804"/><stop offset="1" stop-color="#dab5ff" stop-opacity="0"/></radialGradient><radialGradient cx="447.69234" cy="148.90016" r="20.5" gradientUnits="userSpaceOnUse" id="color-10"><stop offset="0" stop-color="#dab5ff" stop-opacity="0.09804"/><stop offset="1" stop-color="#dab5ff" stop-opacity="0"/></radialGradient><radialGradient cx="466.63995" cy="157.47159" r="20.5" gradientUnits="userSpaceOnUse" id="color-11"><stop offset="0" stop-color="#dab5ff" stop-opacity="0.09804"/><stop offset="1" stop-color="#dab5ff" stop-opacity="0"/></radialGradient><radialGradient cx="470.78432" cy="177.97159" r="20.5" gradientUnits="userSpaceOnUse" id="color-12"><stop offset="0" stop-color="#dab5ff" stop-opacity="0.09804"/><stop offset="1" stop-color="#dab5ff" stop-opacity="0"/></radialGradient><radialGradient cx="460.76677" cy="189.90016" r="20.5" gradientUnits="userSpaceOnUse" id="color-13"><stop offset="0" stop-color="#dab5ff" stop-opacity="0.09804"/><stop offset="1" stop-color="#dab5ff" stop-opacity="0"/></radialGradient><radialGradient cx="444.63105" cy="209.18588" r="20.5" gradientUnits="userSpaceOnUse" id="color-14"><stop offset="0" stop-color="#dab5ff" stop-opacity="0.09804"/><stop offset="1" stop-color="#dab5ff" stop-opacity="0"/></radialGradient><radialGradient cx="424.13105" cy="209.18588" r="20.5" gradientUnits="userSpaceOnUse" id="color-15"><stop offset="0" stop-color="#dab5ff" stop-opacity="0.09804"/><stop offset="1" stop-color="#dab5ff" stop-opacity="0"/></radialGradient><radialGradient cx="423.47955" cy="169.40016" r="20.5" gradientUnits="userSpaceOnUse" id="color-16"><stop offset="0" stop-color="#dab5ff" stop-opacity="0.09804"/><stop offset="1" stop-color="#dab5ff" stop-opacity="0"/></radialGradient><radialGradient cx="419.97375" cy="188.75731" r="20.5" gradientUnits="userSpaceOnUse" id="color-17"><stop offset="0" stop-color="#dab5ff" stop-opacity="0.09804"/><stop offset="1" stop-color="#dab5ff" stop-opacity="0"/></radialGradient><radialGradient cx="416.26096" cy="209.25731" r="20.5" gradientUnits="userSpaceOnUse" id="color-18"><stop offset="0" stop-color="#dab5ff" stop-opacity="0.09804"/><stop offset="1" stop-color="#dab5ff" stop-opacity="0"/></radialGradient><linearGradient x1="320" y1="-0.03846" x2="320" y2="360.03849" gradientUnits="userSpaceOnUse" id="color-19"><stop offset="0" stop-color="#dddddd"/><stop offset="1" stop-color="#c1c1c1"/></linearGradient><linearGradient x1="343.50405" y1="143.86789" x2="343.50405" y2="216.13215" gradientUnits="userSpaceOnUse" id="color-20"><stop offset="0" stop-color="#dddddd"/><stop offset="1" stop-color="#c1c1c1"/></linearGradient><linearGradient x1="302.51145" y1="161.25878" x2="302.51145" y2="216.13214" gradientUnits="userSpaceOnUse" id="color-21"><stop offset="0" stop-color="#dddddd"/><stop offset="1" stop-color="#c1c1c1"/></linearGradient><linearGradient x1="249.92891" y1="160.3947" x2="249.92891" y2="216.13245" gradientUnits="userSpaceOnUse" id="color-22"><stop offset="0" stop-color="#dddddd"/><stop offset="1" stop-color="#c1c1c1"/></linearGradient><linearGradient x1="195.12193" y1="160.21454" x2="195.12193" y2="216.13245" gradientUnits="userSpaceOnUse" id="color-23"><stop offset="0" stop-color="#dddddd"/><stop offset="1" stop-color="#c1c1c1"/></linearGradient><linearGradient x1="383.978" y1="143.86787" x2="383.978" y2="216.13215" gradientUnits="userSpaceOnUse" id="color-24"><stop offset="0" stop-color="#cba5e8"/><stop offset="1" stop-color="#9c82b7"/></linearGradient><linearGradient x1="442.63798" y1="143.86788" x2="442.63798" y2="214.40401" gradientUnits="userSpaceOnUse" id="color-25"><stop offset="0" stop-color="#cba5e8"/><stop offset="1" stop-color="#9c82b7"/></linearGradient></defs><g transform="translate(-139.46151,0.53847)"><g stroke-miterlimit="10"><g stroke="none" stroke-width="0"><path d="M343.84115,206.32144c2.05051,-11.32183 12.89095,-20.5 24.21279,-20.5c11.32184,0 18.83773,9.17817 16.78721,20.5c-2.05051,11.32183 -12.89095,20.5 -24.21279,20.5c-11.32184,0 -18.83773,-9.17817 -16.78721,-20.5z" fill="url(#color-1)"/><path d="M363.4356,211.32144c2.05051,-11.32183 12.89095,-20.5 24.21279,-20.5c11.32184,0 18.83773,9.17817 16.78721,20.5c-2.05051,11.32183 -12.89095,20.5 -24.21279,20.5c-11.32184,0 -18.83773,-9.17817 -16.78721,-20.5z" fill="url(#color-2)"/><path d="M380.00552,190.82144c2.05051,-11.32183 12.89095,-20.5 24.21279,-20.5c11.32184,0 18.83773,9.17817 16.78721,20.5c-2.05051,11.32183 -12.89095,20.5 -24.21279,20.5c-11.32184,0 -18.83773,-9.17817 -16.78721,-20.5z" fill="url(#color-3)"/><path d="M369.08886,180.10716c2.05051,-11.32183 12.89095,-20.5 24.21279,-20.5c11.32184,0 18.83773,9.17817 16.78721,20.5c-2.05051,11.32183 -12.89095,20.5 -24.21279,20.5c-11.32184,0 -18.83773,-9.17817 -16.78721,-20.5z" fill="url(#color-4)"/><path d="M377.58816,133.17859c11.32184,0 18.83773,9.17817 16.78721,20.5c-2.05051,11.32183 -12.89095,20.5 -24.21279,20.5c-11.32184,0 -18.83773,-9.17817 -16.78721,-20.5c2.05051,-11.32183 12.89095,-20.5 24.21279,-20.5z" fill="url(#color-5)"/><path d="M398.99372,128.17859c11.32184,0 18.83773,9.17817 16.78721,20.5c-2.05051,11.32183 -12.89095,20.5 -24.21279,20.5c-11.32184,0 -18.83773,-9.17817 -16.78721,-20.5c2.05051,-11.32183 12.89095,-20.5 24.21279,-20.5z" fill="url(#color-6)"/><path d="M408.13808,148.67859c11.32184,0 18.83773,9.17817 16.78721,20.5c-2.05051,11.32183 -12.89095,20.5 -24.21279,20.5c-11.32184,0 -18.83773,-9.17817 -16.78721,-20.5c2.05051,-11.32183 12.89095,-20.5 24.21279,-20.5z" fill="url(#color-7)"/><path d="M393.34046,159.39287c11.32184,0 18.83773,9.17817 16.78721,20.5c-2.05051,11.32183 -12.89095,20.5 -24.21279,20.5c-11.32184,0 -18.83773,-9.17817 -16.78721,-20.5c2.05051,-11.32183 12.89095,-20.5 24.21279,-20.5z" fill="url(#color-8)"/></g><g stroke="none" stroke-width="0"><path d="M430.90512,128.40016c11.32184,0 18.83773,9.17817 16.78721,20.5c-2.05051,11.32183 -12.89095,20.5 -24.21279,20.5c-11.32184,0 -18.83773,-9.17817 -16.78721,-20.5c2.05051,-11.32183 12.89095,-20.5 24.21279,-20.5z" fill="url(#color-9)"/><path d="M451.40512,128.40016c11.32184,0 18.83773,9.17817 16.78721,20.5c-2.05051,11.32183 -12.89095,20.5 -24.21279,20.5c-11.32184,0 -18.83773,-9.17817 -16.78721,-20.5c2.05051,-11.32183 12.89095,-20.5 24.21279,-20.5z" fill="url(#color-10)"/><path d="M470.35274,136.97159c11.32184,0 18.83773,9.17817 16.78721,20.5c-2.05051,11.32183 -12.89095,20.5 -24.21279,20.5c-11.32184,0 -18.83773,-9.17817 -16.78721,-20.5c2.05051,-11.32183 12.89095,-20.5 24.21279,-20.5z" fill="url(#color-11)"/><path d="M474.4971,157.47159c11.32184,0 18.83773,9.17817 16.78721,20.5c-2.05051,11.32183 -12.89095,20.5 -24.21279,20.5c-11.32184,0 -18.83773,-9.17817 -16.78721,-20.5c2.05051,-11.32183 12.89095,-20.5 24.21279,-20.5z" fill="url(#color-12)"/><path d="M464.47955,169.40016c11.32184,0 18.83773,9.17817 16.78721,20.5c-2.05051,11.32183 -12.89095,20.5 -24.21279,20.5c-11.32184,0 -18.83773,-9.17817 -16.78721,-20.5c2.05051,-11.32183 12.89095,-20.5 24.21279,-20.5z" fill="url(#color-13)"/><path d="M448.34384,188.68588c11.32184,0 18.83773,9.17817 16.78721,20.5c-2.05051,11.32183 -12.89095,20.5 -24.21279,20.5c-11.32184,0 -18.83773,-9.17817 -16.78721,-20.5c2.05051,-11.32183 12.89095,-20.5 24.21279,-20.5z" fill="url(#color-14)"/><path d="M427.84384,188.68588c11.32184,0 18.83773,9.17817 16.78721,20.5c-2.05051,11.32183 -12.89095,20.5 -24.21279,20.5c-11.32184,0 -18.83773,-9.17817 -16.78721,-20.5c2.05051,-11.32183 12.89095,-20.5 24.21279,-20.5z" fill="url(#color-15)"/><path d="M427.19234,148.90016c11.32184,0 18.83773,9.17817 16.78721,20.5c-2.05051,11.32183 -12.89095,20.5 -24.21279,20.5c-11.32184,0 -18.83773,-9.17817 -16.78721,-20.5c2.05051,-11.32183 12.89095,-20.5 24.21279,-20.5z" fill="url(#color-16)"/><path d="M423.68653,168.25731c11.32184,0 18.83773,9.17817 16.78721,20.5c-2.05051,11.32183 -12.89095,20.5 -24.21279,20.5c-11.32184,0 -18.83773,-9.17817 -16.78721,-20.5c2.05051,-11.32183 12.89095,-20.5 24.21279,-20.5z" fill="url(#color-17)"/><path d="M419.97375,188.75731c11.32184,0 18.83773,9.17817 16.78721,20.5c-2.05051,11.32183 -12.89095,20.5 -24.21279,20.5c-11.32184,0 -18.83773,-9.17817 -16.78721,-20.5c2.05051,-11.32183 12.89095,-20.5 24.21279,-20.5z" fill="url(#color-18)"/></g><path d="M500.03848,180.00001c0,99.43245 -80.60603,180.03848 -180.03848,180.03848c-99.43245,0 -180.03848,-80.60602 -180.03848,-180.03847c0,-99.43245 80.60603,-180.03848 180.03848,-180.03848c99.43245,0 180.03848,80.60603 180.03848,180.03848zM157.96537,180.90055c0,89.48912 72.5455,162.03463 162.03463,162.03463c89.48913,0 162.03463,-72.54551 162.03463,-162.03463c0,-89.48912 -72.5455,-162.03463 -162.03463,-162.03463c-89.48912,0 -162.03463,72.54551 -162.03463,162.03463z" fill="url(#color-19)" stroke="#ffffff" stroke-width="1"/><path d="M343.50391,143.86789c3.78064,0 6.37323,2.80846 6.37323,6.6972v35.97015c0,3.88872 -2.59259,6.69719 -6.37323,6.69719c-3.88843,0 -6.37293,-2.80846 -6.37293,-6.69719v-35.97015c0,-3.88872 2.4845,-6.6972 6.37293,-6.6972zM343.50391,216.13215c-4.64474,0 -8.3173,-3.67255 -8.3173,-8.3173c0,-4.53666 3.67256,-8.20951 8.3173,-8.20951c4.64503,0 8.31759,3.67285 8.31759,8.20951c0,4.64474 -3.67256,8.3173 -8.31759,8.3173z" fill="url(#color-20)" stroke="#ffffff" stroke-width="1"/><path d="M320.22602,161.25878c3.88873,0 6.37323,2.80846 6.37323,6.5891v23.87221c0,17.60707 -10.85539,24.41205 -24.0339,24.41205c-13.28629,0 -24.14169,-6.80498 -24.14169,-24.41205v-23.87221c0,-3.78064 2.4845,-6.5891 6.37323,-6.5891c3.78064,0 6.37293,2.80846 6.37293,6.5891v23.00812c0,9.61344 4.05042,13.39409 11.39553,13.39409c7.23733,0 11.28774,-3.78065 11.28774,-13.39409v-23.00812c0,-3.78064 2.59228,-6.5891 6.37293,-6.5891z" fill="url(#color-21)" stroke="#ffffff" stroke-width="1"/><path d="M242.28229,175.84152c0,3.56447 3.67256,4.86091 10.69401,6.48102c9.72152,2.37641 19.0113,4.86091 19.0113,16.85106c0,11.66589 -8.64156,16.95885 -21.06375,16.95885c-10.26166,0 -17.71515,-3.56477 -21.17154,-7.66937c-2.70067,-3.24051 -2.37642,-6.04897 0.21587,-8.53347c3.24051,-3.13242 6.04897,-1.83628 7.88554,-0.21617c2.91624,2.70067 6.48102,5.50914 13.39409,5.50914c5.18487,0 8.42568,-1.72849 8.42568,-5.18487c0,-3.45669 -3.45668,-4.64474 -12.53028,-7.12924c-8.96552,-2.4845 -16.95885,-4.86091 -16.95885,-15.55462c0,-11.99016 9.72152,-16.95915 20.52332,-16.95915c6.15706,0 13.1785,1.62041 17.49928,6.26514c1.83628,1.83627 3.24051,4.42886 0,7.99334c-3.24081,3.34859 -5.61722,2.37641 -7.88554,0.64822c-2.05215,-1.51232 -5.61692,-4.1046 -11.01796,-4.1046c-3.67256,0 -7.02115,1.18805 -7.02115,4.64474z" fill="url(#color-22)" stroke="#ffffff" stroke-width="1"/><path d="M195.12178,216.13245c-15.57457,0 -26.7432,-11.92047 -26.7432,-27.95895c0,-16.14686 11.16864,-27.95895 26.7432,-27.95895c15.57487,0 26.7435,11.8121 26.7435,27.95895c0,16.03848 -11.16863,27.95895 -26.7435,27.95895zM195.12178,204.21198c9.01703,0 14.65271,-6.93569 14.65271,-16.03847c0,-9.10308 -5.63568,-16.14686 -14.65271,-16.14686c-9.01673,0 -14.65241,7.04379 -14.65241,16.14686c0,9.10279 5.63568,16.03847 14.65241,16.03847z" fill="url(#color-23)" stroke="#ffffff" stroke-width="1"/><path d="M406.97199,195.0683c-2.36735,13.07123 -13.9677,21.06385 -28.87507,21.06385c-9.07271,0 -16.39224,-3.13225 -19.50828,-7.99263c-1.9169,-3.13225 -1.42747,-5.83466 2.01692,-8.75089c3.06168,-2.5922 5.78145,-2.70021 8.42686,0c2.97743,3.24025 5.05979,4.86258 10.89225,4.86258c8.31665,0 13.22644,-3.24246 14.40013,-9.72296c1.05633,-5.83246 -1.93131,-9.61275 -9.81813,-9.61275h-1.62013c-3.56428,0 -5.61811,-2.37619 -4.97218,-5.94267c0.64553,-3.56428 3.52095,-5.72445 7.08523,-5.72445h0.75606c5.29241,0 10.46714,-2.91623 11.50391,-8.64068c0.70422,-3.8883 -1.42199,-8.8589 -7.9025,-8.8589c-5.72445,0 -8.85457,3.56648 -11.12108,5.94267c-2.96304,3.24025 -5.81038,3.45627 -8.46515,1.40411c-2.76058,-2.05216 -3.11604,-4.86038 -0.27082,-8.64288c4.02188,-5.50843 12.39605,-10.58483 22.11681,-10.58483c13.61127,0 20.30515,10.15279 18.6029,19.55173c-0.91939,5.0764 -4.23454,10.2608 -8.82706,14.14911c4.49936,3.7825 7.0073,9.61496 5.57931,17.49957z" fill="url(#color-24)" stroke="#dfb5ff" stroke-width="1"/><path d="M473.78157,179.08084c-3.89315,21.49589 -19.25264,35.32317 -38.91238,35.32317h-18.79347c-3.99852,0 -5.95455,-2.91623 -5.25033,-6.80453l10.31015,-56.92707c0.70422,-3.8883 3.71657,-6.80453 7.71509,-6.80453h18.68546c19.65974,0 30.1578,13.61127 26.24549,35.21296zM460.81835,179.08084c2.40607,-13.28504 -1.77385,-23.0058 -15.49313,-23.0058h-12.31296l-8.35319,46.12181h12.42097c13.71928,0 21.3514,-9.93678 23.73831,-23.11601z" fill="url(#color-25)" stroke="#dfb5ff" stroke-width="1"/></g></g></svg>