<svg version="1.1" xmlns="http://www.w3.org/2000/svg" xmlns:xlink="http://www.w3.org/1999/xlink" width="360.07696" height="360.07695" viewBox="0,0,360.07696,360.07695"><g transform="translate(-139.96152,0.07695)"><g fill="#ffffff" stroke="none" stroke-miterlimit="10"><path d="M432.08196,126.85052c5.07988,0 8.56343,3.77361 8.56343,8.99873v48.33153c0,5.22511 -3.48355,8.99872 -8.56343,8.99872c-5.22472,0 -8.56303,-3.77361 -8.56303,-8.99872v-48.33153c0,-5.22511 3.33831,-8.99873 8.56303,-8.99873zM432.08196,223.94887c-6.24093,0 -11.17559,-4.93465 -11.17559,-11.17559c0,-6.09571 4.93466,-11.03076 11.17559,-11.03076c6.24133,0 11.17599,4.93505 11.17599,11.03076c0,6.24094 -4.93466,11.17559 -11.17599,11.17559z"/><path d="M400.80448,150.21791c5.22512,0 8.56343,3.77361 8.56343,8.85349v32.07605c0,23.65786 -14.58591,32.80141 -32.2933,32.80141c-17.85221,0 -32.43814,-9.14355 -32.43814,-32.80141v-32.07605c0,-5.07988 3.33832,-8.85349 8.56343,-8.85349c5.07988,0 8.56303,3.77361 8.56303,8.85349v30.91501c0,12.91716 5.44237,17.99705 15.31168,17.99705c9.72448,0 15.16684,-5.07989 15.16684,-17.99705v-30.91501c0,-5.07988 3.48314,-8.85349 8.56303,-8.85349z"/><path d="M296.07488,169.8121c0,4.78942 4.93466,6.5314 14.36908,8.70827c13.06239,3.19308 25.54466,6.53139 25.54466,22.64203c0,15.67495 -11.61129,22.78687 -28.30245,22.78687c-13.78814,0 -23.80308,-4.78982 -28.44728,-10.305c-3.62877,-4.35413 -3.19309,-8.12774 0.29006,-11.46605c4.35413,-4.2089 8.12774,-2.46733 10.59546,-0.29046c3.91843,3.62877 8.70826,7.40239 17.99705,7.40239c6.96669,0 11.32122,-2.3225 11.32122,-6.96669c0,-4.6446 -4.64459,-6.24093 -16.83639,-9.57925c-12.04658,-3.33831 -22.78687,-6.5314 -22.78687,-20.90007c0,-16.11065 13.06239,-22.78727 27.57629,-22.78727c8.27297,0 17.70738,2.17727 23.51302,8.4182c2.46733,2.46732 4.35413,5.95087 0,10.7403c-4.35453,4.49936 -7.54761,3.19308 -10.59546,0.87098c-2.75739,-2.03204 -7.54721,-5.51517 -14.80436,-5.51517c-4.93466,0 -9.43402,1.59633 -9.43402,6.24093z"/><path d="M232.70735,223.94927c-20.92687,0 -35.93368,-16.01702 -35.93368,-37.56722c0,-21.69583 15.00681,-37.56723 35.93368,-37.56723c20.92728,0 35.93408,15.8714 35.93408,37.56723c0,21.55021 -15.0068,37.56722 -35.93408,37.56722zM232.70735,207.93225c12.11579,0 19.68821,-9.31919 19.68821,-21.5502c0,-12.23141 -7.57242,-21.69584 -19.68821,-21.69584c-12.11539,0 -19.68781,9.46443 -19.68781,21.69584c0,12.23102 7.57242,21.5502 19.68781,21.5502z"/><path d="M500.03848,179.96152c0,99.43245 -80.60603,180.03848 -180.03848,180.03848c-99.43245,0 -180.03848,-80.60602 -180.03848,-180.03847c0,-99.43245 80.60603,-180.03848 180.03848,-180.03848c99.43245,0 180.03848,80.60603 180.03848,180.03848zM157.96537,180.86206c0,89.48912 72.5455,162.03463 162.03463,162.03463c89.48913,0 162.03463,-72.54551 162.03463,-162.03463c0,-89.48912 -72.5455,-162.03463 -162.03463,-162.03463c-89.48912,0 -162.03463,72.54551 -162.03463,162.03463z"/></g></g></svg>