<svg version="1.1" xmlns="http://www.w3.org/2000/svg" xmlns:xlink="http://www.w3.org/1999/xlink" width="761.41557" height="968.60262" viewBox="0,0,761.41557,968.60262"><defs><linearGradient x1="320" y1="-304.30131" x2="320" y2="360" gradientUnits="userSpaceOnUse" id="color-1"><stop offset="0" stop-color="#9966ff" stop-opacity="0"/><stop offset="1" stop-color="#9966ff"/></linearGradient><linearGradient x1="319.99928" y1="-42.68187" x2="319.99928" y2="400.68186" gradientUnits="userSpaceOnUse" id="color-2"><stop offset="0" stop-color="#000000" stop-opacity="0"/><stop offset="1" stop-color="#000000" stop-opacity="0.0902"/></linearGradient></defs><g transform="translate(60.7078,304.30131)"><g stroke-miterlimit="10"><path d="M-4,360v-664.30131h648v664.30131z" fill="url(#color-1)" fill-rule="nonzero" stroke="none" stroke-width="0"/><path d="M295.82387,153.06749h-22.89209l13.65689,23.6542l98.66081,-170.88454l92.14133,159.59406l21.62726,-37.45956l30.81317,53.3695l57.8608,-100.21583l113.01573,195.74936h-115.72037l27.04639,46.84633h-226.03146l12.55716,-21.75048h-111.20751l56.99088,98.71134h-226.03208l26.08098,-45.17303h-205.09956l75.34402,-130.49916h-51.92082l113.0161,-195.74936l32.77049,56.75985l74.30612,-128.70203zM468.15007,301.97052l-33.19498,-57.49422l24.76254,-42.88979h38.54758l-19.27379,-33.38289l20.02666,-34.68716l29.21257,50.59709l-53.55555,92.76113h107.10865l25.45072,44.07392h-216.4303l10.95657,-18.97807zM403.36132,299.19812h59.98632l-29.99316,-51.94941zM406.99194,201.58651h-103.71584l-1.16564,2.01954l35.53983,61.55735h-71.08026l-0.23473,0.406l19.41611,33.62872h114.40871l31.59376,-54.72182zM410.19315,201.58651h46.32326l-23.16194,40.11738zM355.13372,106.22178l-53.45821,92.59231h-2.33191l-11.15433,-19.32l97.06021,-168.11213l90.54073,156.82165l-17.67319,30.61048h-49.52448zM355.13372,111.7666l50.25763,87.04749h-100.51463zM264.96942,262.39099h-0.46885l-33.17342,-57.45849l-33.17342,57.4585h-81.73309l21.58228,-37.38132h50.74434l-25.37248,-43.94639l16.16377,-27.99579h90.19203l15.2575,26.42661l-12.75494,22.09241h25.50987l1.16626,2.01954zM300.50986,206.37846l32.33862,56.01253h-64.67785zM242.11799,301.97052h42.0328l55.39028,95.93893h-216.42845l24.48037,-42.40062h17.7311l-8.86555,-15.35545l43.2958,-74.98998h63.14502l0.23473,0.406zM246.9198,299.19812l17.81489,-30.85631l17.8155,30.85631zM277.03556,198.8141l9.55311,-16.54759l9.55372,16.54759zM493.4634,198.8141l-16.07259,-27.83807l-16.07258,27.83807zM-32.48264,222.23726h48.71949l36.07151,-62.47779l36.07089,62.47779h48.02244l23.77188,-41.17398l-16.16315,-27.99579h-74.21864l37.10901,-64.27492l-31.16927,-53.98744zM142.40982,150.29508h-67.81622l33.90842,-58.73011zM182.80814,-37.13705l108.21392,187.43213h-19.69089l-46.69662,-80.88104l-46.69661,80.88104h-32.32691l-35.50841,-61.50252zM176.33733,153.06749h-29.1257l14.56254,25.22338zM181.13915,150.29508h86.99081l-43.49541,-75.33623zM86.77865,225.00967l66.47868,115.14371l-7.26494,12.58304h-201.89821l73.74328,-127.72675zM52.30836,165.30429l-32.8703,56.93297h65.73999zM134.80109,225.00967l-22.41031,38.81619l-22.41093,-38.81619zM183.94544,222.23726h-44.34192l22.17065,-38.40157zM196.55251,265.1634h-83.38977l41.69519,72.21757zM160.52228,352.73642h-11.32868l5.66434,-9.81063zM261.29875,262.39099l-29.9716,-51.91367l-29.97221,51.91367zM580.18806,274.10226h-100.71116l50.35435,-87.2163zM695.90227,274.10226l-108.21023,-187.43213l-56.26019,97.44342l51.95372,89.98871z" fill="url(#color-2)" fill-rule="evenodd" stroke="none" stroke-width="1"/><path d="M99.77177,332.15315c-4.41828,0 -8,-3.58172 -8,-8v-290.30631c0,-4.41828 3.58172,-8 8,-8h440.45646c4.41828,0 8,3.58172 8,8v290.30631c0,4.41828 -3.58172,8 -8,8z" fill="#9869ff" fill-rule="nonzero" stroke="#9966ff" stroke-width="2"/><path d="M99.77177,333.15315c-4.41828,0 -8,-3.58172 -8,-8v-290.30631c0,-4.41828 3.58172,-8 8,-8h440.45646c4.41828,0 8,3.58172 8,8v290.30631c0,4.41828 -3.58172,8 -8,8z" fill-opacity="0.74902" fill="#000000" fill-rule="nonzero" stroke="#9966ff" stroke-width="2"/><path d="M-4,664.30131v-968.60262h648v968.60262z" fill="none" fill-rule="nonzero" stroke="none" stroke-width="none"/></g></g></svg>