<svg version="1.1" xmlns="http://www.w3.org/2000/svg" xmlns:xlink="http://www.w3.org/1999/xlink" width="761.41557" height="647.55856" viewBox="0,0,761.41557,647.55856"><defs><linearGradient x1="319.99928" y1="15.3752" x2="319.99928" y2="458.73892" gradientUnits="userSpaceOnUse" id="color-1"><stop offset="0" stop-color="#f964a7"/><stop offset="1" stop-color="#b6346f"/></linearGradient></defs><g transform="translate(60.70778,143.77928)"><g stroke="none" stroke-miterlimit="10"><path d="M295.82387,211.12455h-22.89209l13.65689,23.6542l98.66081,-170.88454l92.14134,159.59406l21.62726,-37.45956l30.81318,53.3695l57.8608,-100.21583l113.01573,195.74936h-115.72037l27.04639,46.84633h-226.03146l12.55717,-21.75048h-111.20751l56.99088,98.71133h-226.03208l26.08098,-45.17302h-205.09956l75.34402,-130.49916h-51.92082l113.0161,-195.74936l32.7705,56.75985l74.30612,-128.70202zM468.15006,360.02759l-33.19498,-57.49423l24.76255,-42.88979h38.54758l-19.27379,-33.38289l20.02665,-34.68716l29.21257,50.59709l-53.55556,92.76112h107.10865l25.45072,44.07392h-216.4303l10.95656,-18.97807zM403.36132,357.25518h59.98632l-29.99316,-51.94941zM406.99194,259.64357h-103.71584l-1.16564,2.01955l35.53983,61.55735h-71.08027l-0.23473,0.406l19.41611,33.62871h114.40871l31.59376,-54.72182zM410.19315,259.64357h46.32327l-23.16194,40.11738zM355.13371,164.27884l-53.45822,92.59232h-2.3319l-11.15433,-19.32l97.06021,-168.11213l90.54073,156.82165l-17.67319,30.61048h-49.52447zM355.13371,169.82366l50.25762,87.0475h-100.51463zM264.96941,320.44805h-0.46885l-33.17342,-57.45849l-33.17342,57.45849h-81.7331l21.58228,-37.38132h50.74433l-25.37248,-43.94639l16.16376,-27.99579h90.19203l15.25749,26.42661l-12.75493,22.09241h25.50986l1.16626,2.01955zM300.50986,264.43552l32.33862,56.01253h-64.67785zM242.11798,360.02759h42.03281l55.39028,95.93892h-216.42845l24.48038,-42.40061h17.7311l-8.86555,-15.35545l43.29579,-74.98998h63.14501l0.23473,0.406zM246.9198,357.25518l17.81489,-30.8563l17.8155,30.8563zM277.03556,256.87116l9.55311,-16.54759l9.55372,16.54759zM493.46339,256.87116l-16.07258,-27.83807l-16.07258,27.83807zM-32.48265,280.29432h48.71949l36.07151,-62.47779l36.0709,62.47779h48.02244l23.77187,-41.17398l-16.16315,-27.99579h-74.21863l37.10901,-64.27493l-31.16928,-53.98744zM142.40982,208.35215h-67.81622l33.90842,-58.73011zM182.80813,20.92001l108.21392,187.43213h-19.69088l-46.69662,-80.88104l-46.69662,80.88104h-32.32691l-35.5084,-61.50252zM176.33733,211.12455h-29.1257l14.56254,25.22338zM181.13914,208.35215h86.99082l-43.49541,-75.33622zM86.77865,283.06673l66.47868,115.14371l-7.26495,12.58304h-201.89821l73.74328,-127.72675zM52.30836,223.36135l-32.8703,56.93297h65.73999zM134.80109,283.06673l-22.41031,38.8162l-22.41093,-38.8162zM183.94544,280.29432h-44.34192l22.17065,-38.40157zM196.55251,323.22046h-83.38976l41.69519,72.21757zM160.52228,410.79349h-11.32868l5.66434,-9.81063zM261.29874,320.44805l-29.97159,-51.91368l-29.97221,51.91368zM580.18806,332.15933h-100.71116l50.35435,-87.21631zM695.90227,332.15933l-108.21022,-187.43213l-56.2602,97.44342l51.95372,89.98872z" fill="url(#color-1)" fill-rule="evenodd" stroke-width="1"/><path d="M-60.70778,503.77928v-647.55856h761.41556v647.55856z" fill="none" fill-rule="nonzero" stroke-width="none"/></g></g></svg>