<svg version="1.1" xmlns="http://www.w3.org/2000/svg" xmlns:xlink="http://www.w3.org/1999/xlink" width="67.83333" height="35.16668" viewBox="0,0,67.83333,35.16668"><g transform="translate(-286.08333,-162.41667)"><g stroke-miterlimit="10"><path d="M287.33333,179.66668c0,-8.83656 7.16344,-16 16,-16h33.33333c8.83656,0 16,7.16344 16,16v0.66668c0,8.83656 -7.16344,16 -16,16h-33.33333c-8.83656,0 -16,-7.16344 -16,-16z" fill-opacity="0.49412" fill="#000000" stroke="#9966ff" stroke-width="2.5"/><path d="M290.40651,179.7267c0,-7.24494 6.48953,-13.11813 14.49477,-13.11813h30.19744c8.00525,0 14.49477,5.87318 14.49477,13.11813v0.5466c0,7.24494 -6.48953,13.11813 -14.49477,13.11813h-30.19744c-8.00525,0 -14.49477,-5.87318 -14.49477,-13.11813z" fill="#9966ff" stroke="none" stroke-width="0"/></g></g></svg>